<svg width="88" height="88" viewBox="0 0 88 88" fill="none" xmlns="http://www.w3.org/2000/svg">
<path opacity="0.14" d="M-0.00708008 8C-0.00708008 3.58172 3.57464 0 7.99292 0H79.3565C83.7748 0 87.3565 3.58172 87.3565 8V80C87.3565 84.4183 83.7748 88 79.3565 88H7.99293C3.57465 88 -0.00708008 84.4183 -0.00708008 80V8Z" fill="#B552F8"/>
<path d="M43.5012 71.0087C38.064 71.0087 32.6417 71.0087 27.2045 71.0235C26.7452 71.0235 26.6119 70.9198 26.6267 70.4458C26.6563 69.2309 26.6415 69.2013 27.8267 69.2457C28.3304 69.2605 28.4193 69.0976 28.4193 68.6383C28.4045 64.5345 28.4045 60.4307 28.4045 56.3417C28.4045 55.2898 28.6564 55.0528 29.7231 55.0528C31.4564 55.0528 33.1898 55.038 34.938 55.0676C35.3825 55.0676 35.5306 54.9787 35.5306 54.5046C35.501 52.4157 35.5158 50.3268 35.5158 48.2378C35.5158 47.3637 35.8121 47.0674 36.6714 47.0674C41.2196 47.0674 45.7679 47.0674 50.3013 47.0674C51.1754 47.0674 51.4717 47.3637 51.4717 48.223C51.4717 50.3268 51.4866 52.4305 51.4569 54.5343C51.4569 54.9491 51.5458 55.0676 51.9755 55.0528C53.7829 55.0232 55.5904 55.038 57.4126 55.038C58.2719 55.038 58.5682 55.3343 58.5682 56.2084C58.5682 60.3714 58.583 64.5197 58.5534 68.6827C58.5534 69.1568 58.6867 69.2605 59.1312 69.2457C60.3312 69.2161 60.3016 69.2457 60.346 70.4309C60.3608 70.9643 60.1682 71.0087 59.7238 71.0087C54.3311 71.0087 48.9087 71.0087 43.5012 71.0087ZM37.2788 59.0233C37.2788 62.253 37.2936 65.4975 37.264 68.7272C37.264 69.142 37.3529 69.2754 37.7825 69.2457C38.3751 69.2013 38.9677 69.2309 39.5603 69.2457C39.8418 69.2605 39.9604 69.1865 39.9455 68.8753C39.9307 68.2235 39.9307 67.5864 39.9455 66.9346C39.9455 66.6975 39.9159 66.5197 39.6196 66.579C39.0714 66.6827 38.9974 66.3864 39.0566 65.9568C39.0714 65.779 39.0863 65.5864 39.0566 65.4086C38.9826 64.9345 39.1307 64.7864 39.6492 64.7864C41.9752 64.816 44.3012 64.8012 46.6272 64.8012C47.9605 64.8012 47.9457 64.8012 47.9457 66.1197C47.9457 66.4753 47.842 66.6383 47.4865 66.579C47.1605 66.5197 47.0272 66.6383 47.042 66.9938C47.0716 67.6012 47.0716 68.2087 47.042 68.8161C47.0272 69.1716 47.1605 69.2605 47.4865 69.2457C48.0346 69.2161 48.5976 69.2013 49.1458 69.2457C49.6198 69.2754 49.7235 69.1272 49.7235 68.6679C49.7087 62.2381 49.7087 55.8084 49.7235 49.3786C49.7235 48.9638 49.6495 48.8156 49.1902 48.8156C45.3975 48.8304 41.6196 48.8304 37.827 48.8156C37.3825 48.8156 37.2936 48.9489 37.2936 49.3786C37.2936 52.5935 37.2788 55.8084 37.2788 59.0233ZM30.1823 63.0085C30.1823 64.9345 30.1823 66.8457 30.1823 68.7716C30.1823 69.0531 30.1823 69.2457 30.5824 69.2457C32.0935 69.2161 33.6046 69.2309 35.1306 69.2457C35.4565 69.2457 35.5306 69.142 35.5306 68.8309C35.5158 64.9641 35.5158 61.1122 35.5306 57.2454C35.5306 56.8454 35.3825 56.801 35.0417 56.801C33.5898 56.8158 32.1231 56.8158 30.6712 56.801C30.2712 56.801 30.1823 56.9195 30.1972 57.3047C30.1972 59.201 30.1823 61.1122 30.1823 63.0085ZM56.8052 63.0382C56.8052 61.1122 56.7904 59.201 56.8052 57.2751C56.8052 56.9195 56.7311 56.801 56.3459 56.801C54.8644 56.8158 53.3977 56.8158 51.9162 56.801C51.5458 56.801 51.4569 56.9195 51.4569 57.2751C51.4717 61.0974 51.4717 64.9197 51.4569 68.742C51.4569 69.1124 51.531 69.2457 51.931 69.2457C53.3829 69.2161 54.8496 69.2161 56.3015 69.2457C56.7015 69.2457 56.7904 69.1272 56.7756 68.742C56.7904 66.8457 56.8052 64.9345 56.8052 63.0382ZM43.516 66.5642C43.0419 66.5642 42.553 66.579 42.0789 66.5642C41.7826 66.5494 41.7085 66.6679 41.7085 66.9494C41.7234 67.6012 41.7234 68.2383 41.7085 68.8902C41.7085 69.142 41.7826 69.2457 42.0493 69.2457C43.0123 69.2309 43.9604 69.2309 44.9234 69.2457C45.1901 69.2457 45.2642 69.142 45.2642 68.8902C45.2494 68.2383 45.2494 67.6012 45.2642 66.9494C45.279 66.6679 45.1901 66.5494 44.8938 66.5642C44.4494 66.5938 43.9753 66.5642 43.516 66.5642Z" fill="#B552F8" stroke="#B552F8" stroke-width="0.2"/>
<path d="M32.8491 22.9483C32.8491 24.6521 32.8639 26.3558 32.8491 28.0447C32.8491 28.3855 32.938 28.5484 33.2787 28.6818C34.3306 29.067 35.2936 29.6003 36.1084 30.3855C37.6788 31.9115 37.6936 33.8226 36.1232 35.3634C34.938 36.519 33.4565 37.1412 31.8861 37.5413C27.9008 38.5339 23.9452 38.4746 20.0488 37.0968C18.8487 36.6672 17.7524 36.0597 16.908 35.0968C15.6635 33.6745 15.7079 31.9856 16.982 30.6078C17.7969 29.7337 18.7895 29.1559 19.9006 28.7559C20.3599 28.5929 20.4488 28.3559 20.4488 27.9114C20.4191 24.6224 20.4191 21.3483 20.434 18.0741C20.434 16.6667 21.1006 16 22.5081 16C25.2785 16 28.049 16 30.8194 16C32.1379 16 32.8491 16.6963 32.8491 18C32.8491 19.6593 32.8491 21.3038 32.8491 22.9483ZM22.197 24.815C22.197 27.0521 22.197 29.2892 22.197 31.5263C22.197 31.8374 22.2414 31.9856 22.6118 31.9856C24.0192 32.0004 24.0192 32.0152 23.9748 30.6078C23.9748 30.5781 23.9748 30.5337 23.9748 30.5041C23.9896 30.2966 23.9155 30.1633 23.6933 30.2077C23.1007 30.3263 23.0266 30.0003 23.0859 29.5262C23.1155 29.3188 23.1155 29.1114 23.0859 28.9188C23.0266 28.5336 23.1896 28.4299 23.5748 28.4299C25.3674 28.4447 27.1601 28.4447 28.9527 28.4447C30.1972 28.4447 30.1972 28.4447 30.1972 29.7188C30.1972 30.0744 30.1379 30.2966 29.7231 30.2226C29.3823 30.1633 29.2934 30.3115 29.2934 30.6522C29.2786 32.03 29.2638 32.0152 30.6416 32.0152C31.0268 32.0152 31.0861 31.8819 31.0861 31.5411C31.0713 27.1262 31.0713 22.7113 31.0861 18.2964C31.0861 17.9112 30.9824 17.8075 30.5972 17.8075C27.9749 17.8223 25.3526 17.8371 22.7303 17.8075C22.2562 17.8075 22.197 17.9704 22.197 18.3704C22.2118 20.489 22.197 22.652 22.197 24.815ZM32.9083 30.43C32.8787 30.5041 32.8491 30.5337 32.8491 30.5633C32.8491 31.2448 32.8491 31.9263 32.8343 32.6078C32.8343 33.4375 32.5231 33.7338 31.6935 33.7338C28.3156 33.7338 24.9378 33.7338 21.5599 33.7338C20.7303 33.7338 20.434 33.4226 20.434 32.593C20.434 31.8819 20.434 31.1707 20.434 30.4448C19.5747 30.7263 18.7598 31.23 18.2858 31.7633C17.6191 32.5041 17.6043 33.1856 18.2858 33.9264C18.8784 34.5634 19.6191 34.9634 20.4191 35.2894C22.8637 36.2672 25.4267 36.5338 28.0341 36.356C29.9009 36.2375 31.7231 35.882 33.4417 35.0671C34.0787 34.756 34.6713 34.3856 35.1306 33.8375C35.6788 33.1708 35.6788 32.5485 35.1306 31.8819C34.5084 31.1855 33.738 30.7855 32.9083 30.43ZM27.5304 31.0522C27.5304 30.1929 27.5304 30.1929 26.7156 30.1929C25.7526 30.1929 25.7526 30.1929 25.7526 31.1411C25.7526 31.9708 25.7526 31.9708 26.5971 31.9708C27.5304 31.9708 27.5304 31.9708 27.5304 31.0522Z" fill="#B552F8" stroke="#B552F8" stroke-width="0.2"/>
<path d="M54.1385 22.9483C54.1385 21.289 54.1385 19.6149 54.1385 17.9556C54.1385 16.7111 54.8496 16 56.1089 16C58.9386 16 61.7683 16 64.598 16C65.8424 16 66.5684 16.7259 66.5684 17.9556C66.5684 21.2298 66.5832 24.5039 66.5536 27.7632C66.5536 28.2966 66.6721 28.5781 67.2054 28.7559C68.1684 29.0818 69.0425 29.6151 69.7833 30.3263C71.3981 31.8819 71.4129 33.8226 69.7833 35.3782C68.5981 36.5042 67.1314 37.1264 65.5758 37.5116C61.5905 38.5042 57.6348 38.445 53.7384 37.0672C52.5384 36.6375 51.4421 36.0301 50.5976 35.0523C49.368 33.6301 49.3976 31.9411 50.6865 30.5633C51.531 29.6448 52.6125 29.067 53.7533 28.6373C54.0496 28.5336 54.1385 28.3855 54.1385 28.0744C54.1385 26.3854 54.1385 24.6669 54.1385 22.9483ZM55.9163 24.8743C55.9163 27.0966 55.9163 29.304 55.9163 31.5263C55.9163 31.8522 55.9755 31.9708 56.3311 31.9708C57.7682 31.9856 57.8422 31.9263 57.6941 30.4744C57.6793 30.267 57.62 30.1485 57.4126 30.1929C56.8052 30.3115 56.7607 29.9559 56.8052 29.4966C56.82 29.2892 56.8348 29.0818 56.8052 28.8892C56.7459 28.4892 56.9237 28.4003 57.2941 28.4003C59.0719 28.4151 60.8349 28.4151 62.6127 28.4151C63.9313 28.4151 63.9165 28.4151 63.9016 29.7485C63.9016 30.0744 63.8424 30.2522 63.4868 30.1781C63.0868 30.104 62.9979 30.2818 62.9979 30.667C63.0127 31.9708 62.9979 31.9559 64.2868 31.9559C64.6572 31.9559 64.7906 31.8819 64.7906 31.4819C64.7757 27.0669 64.7757 22.652 64.7906 18.2371C64.7906 17.8371 64.672 17.7482 64.2868 17.7482C61.6646 17.763 59.0423 17.763 56.42 17.7482C56.0052 17.7482 55.8866 17.8371 55.9015 18.2667C55.9311 20.4742 55.9163 22.6816 55.9163 24.8743ZM54.1385 30.4152C53.2644 30.7707 52.5236 31.1707 51.9458 31.8226C51.3236 32.5189 51.3236 33.2004 51.9458 33.8967C52.5384 34.5634 53.3088 34.9782 54.1088 35.3042C56.5533 36.282 59.1164 36.5338 61.7238 36.3709C63.5905 36.2523 65.4128 35.8968 67.1314 35.0671C67.7832 34.756 68.3906 34.3708 68.8499 33.793C69.3536 33.156 69.3536 32.5634 68.8499 31.9263C68.2573 31.2004 67.4721 30.8004 66.5684 30.4152C66.5684 31.2152 66.5684 31.9559 66.5684 32.6819C66.5684 33.4078 66.2424 33.7486 65.5313 33.7486C62.0794 33.7486 58.6274 33.7486 55.1755 33.7486C54.494 33.7486 54.1681 33.4078 54.1533 32.7115C54.1385 31.9708 54.1385 31.23 54.1385 30.4152ZM61.2349 31.0967C61.2349 30.1929 61.2349 30.1929 60.5682 30.1929C59.4571 30.1929 59.4571 30.1929 59.4571 30.8744C59.4571 31.9708 59.4571 31.9708 60.1979 31.9708C61.2349 31.9708 61.2349 31.9708 61.2349 31.0967Z" fill="#B552F8" stroke="#B552F8" stroke-width="0.2"/>
<path d="M54.7904 39.6746C54.7015 39.7784 54.6422 39.8672 54.5681 39.9561C52.9533 41.8377 51.3384 43.7044 49.7384 45.5859C49.5606 45.7933 49.4569 45.8378 49.2199 45.6452C48.1087 44.7414 48.1087 44.7563 49.0273 43.6896C50.3903 42.1043 51.7533 40.5339 53.0866 38.9339C53.3681 38.5931 53.5607 38.4894 53.8866 38.8598C54.0941 39.0969 54.3607 39.2746 54.5978 39.4821C54.6718 39.5413 54.7163 39.6006 54.7904 39.6746Z" fill="#B552F8" stroke="#B552F8" stroke-width="0.2"/>
<path d="M37.5751 45.7785C37.3973 45.7785 37.3381 45.6451 37.264 45.5563C35.6343 43.6599 34.0195 41.7784 32.3898 39.8969C32.1972 39.6746 32.2268 39.5561 32.4343 39.4228C32.4491 39.408 32.4639 39.3931 32.4787 39.3931C33.5009 38.4598 33.5009 38.4598 34.4047 39.5117C35.7825 41.1265 37.1603 42.7414 38.5529 44.3414C38.8196 44.6377 38.8048 44.8007 38.4937 45.0229C38.1677 45.2451 37.8714 45.5266 37.5751 45.7785Z" fill="#B552F8" stroke="#B552F8" stroke-width="0.2"/>
<path d="M39.9604 50.6082C40.8345 50.6082 40.8345 50.6082 40.8345 51.6305C40.8345 52.3713 40.8345 52.3713 39.7381 52.3713C39.0566 52.3713 39.0566 52.3713 39.0566 51.2601C39.0566 50.6082 39.0566 50.6082 39.9604 50.6082Z" fill="#B552F8" stroke="#B552F8" stroke-width="0.2"/>
<path d="M43.5012 50.6082C44.3901 50.6082 44.3901 50.6082 44.3901 51.6749C44.3901 52.3861 44.3901 52.3861 43.3086 52.3713C42.6123 52.3713 42.6123 52.3713 42.6123 51.2749C42.6123 50.6082 42.6123 50.6082 43.5012 50.6082Z" fill="#B552F8" stroke="#B552F8" stroke-width="0.2"/>
<path d="M47.042 50.6082C47.9309 50.6082 47.9309 50.6082 47.9309 51.6749C47.9309 52.3861 47.9309 52.3861 46.8494 52.3713C46.1531 52.3713 46.1531 52.3713 46.1531 51.2749C46.1531 50.6082 46.1531 50.6082 47.042 50.6082Z" fill="#B552F8" stroke="#B552F8" stroke-width="0.2"/>
<path d="M40.8345 55.0528C40.8345 55.9269 40.8345 55.9269 39.753 55.9269C39.0566 55.9269 39.0566 55.9269 39.0566 54.8305C39.0566 54.149 39.0566 54.149 40.1678 54.149C40.8345 54.149 40.8345 54.149 40.8345 55.0528Z" fill="#B552F8" stroke="#B552F8" stroke-width="0.2"/>
<path d="M44.3753 55.0528C44.3753 55.9269 44.3753 55.9269 43.2938 55.9269C42.5975 55.9269 42.5975 55.9269 42.5975 54.8305C42.5975 54.149 42.5975 54.149 43.7086 54.149C44.3753 54.149 44.3753 54.149 44.3753 55.0528Z" fill="#B552F8" stroke="#B552F8" stroke-width="0.2"/>
<path d="M47.0865 54.149C47.9309 54.149 47.9309 54.149 47.9309 54.9787C47.9309 55.9269 47.9309 55.9269 46.968 55.9269C46.8939 55.9269 46.8198 55.9121 46.7457 55.9269C46.2716 56.0009 46.0494 55.838 46.1383 55.3491C46.1531 55.2602 46.1383 55.1713 46.1383 55.0676C46.1531 54.149 46.1531 54.149 47.0865 54.149Z" fill="#B552F8" stroke="#B552F8" stroke-width="0.2"/>
<path d="M39.8863 59.4677C39.0566 59.4677 39.0566 59.4677 39.0566 58.6232C39.0566 57.6899 39.0566 57.6899 39.9752 57.6899C40.8345 57.6899 40.8345 57.6899 40.8345 58.564C40.8345 59.4677 40.8345 59.4677 39.8863 59.4677Z" fill="#B552F8" stroke="#B552F8" stroke-width="0.2"/>
<path d="M47.0272 57.7047C47.9309 57.7047 47.9309 57.7047 47.9309 58.7566C47.9309 59.4825 47.9309 59.4825 46.8642 59.4825C46.1531 59.4825 46.1531 59.4825 46.1531 58.3418C46.1531 57.7047 46.1531 57.7047 47.0272 57.7047Z" fill="#B552F8" stroke="#B552F8" stroke-width="0.2"/>
<path d="M40.8345 62.1641C40.8345 63.0086 40.8345 63.0085 39.9456 63.0085C39.0566 63.0085 39.0566 63.0085 39.0566 62.1196C39.0566 61.2455 39.0566 61.2455 39.9159 61.2455C40.8345 61.2455 40.8345 61.2455 40.8345 62.1641Z" fill="#B552F8" stroke="#B552F8" stroke-width="0.2"/>
<path d="M44.3753 62.1196C44.3753 63.0234 44.3753 63.0234 43.3234 63.0234C42.5975 63.0234 42.5975 63.0234 42.5975 61.9567C42.5975 61.2455 42.5975 61.2455 43.7234 61.2455C44.3753 61.2455 44.3753 61.2455 44.3753 62.1196Z" fill="#B552F8" stroke="#B552F8" stroke-width="0.2"/>
<path d="M43.4864 57.7047C44.3753 57.7047 44.3753 57.7047 44.3753 58.7566C44.3753 59.4677 44.3753 59.4677 43.3086 59.4677C42.6123 59.4677 42.6123 59.4677 42.6123 58.3862C42.6123 57.7047 42.6123 57.7047 43.4864 57.7047Z" fill="#B552F8" stroke="#B552F8" stroke-width="0.2"/>
<path d="M47.0124 61.2455C47.9309 61.2455 47.9309 61.2455 47.9309 62.1789C47.9309 63.0234 47.9309 63.0234 47.1012 63.0234C46.1531 63.0234 46.1531 63.0234 46.1531 62.0604C46.1531 61.2455 46.1531 61.2455 47.0124 61.2455Z" fill="#B552F8" stroke="#B552F8" stroke-width="0.2"/>
<path d="M31.9601 59.4233C31.9601 58.5788 31.9601 58.5788 32.7898 58.5788C33.7231 58.5788 33.7231 58.5788 33.7231 59.5418C33.7231 59.6455 33.7083 59.764 33.7231 59.8677C33.7824 60.2529 33.6343 60.4159 33.2491 60.3566C33.1305 60.3418 32.9972 60.3566 32.8639 60.3566C31.9601 60.3566 31.9601 60.3566 31.9601 59.4233Z" fill="#B552F8" stroke="#B552F8" stroke-width="0.2"/>
<path d="M31.9601 62.9789C31.9601 62.1344 31.9601 62.1344 32.7898 62.1344C33.738 62.1344 33.738 62.1344 33.738 63.0974C33.738 63.1715 33.7231 63.2456 33.738 63.3196C33.812 63.7937 33.6491 64.016 33.1602 63.9271C33.0713 63.9123 32.9824 63.9271 32.8787 63.9271C31.9601 63.9123 31.9601 63.9123 31.9601 62.9789Z" fill="#B552F8" stroke="#B552F8" stroke-width="0.2"/>
<path d="M33.738 66.5938C33.738 67.4679 33.738 67.4679 32.7157 67.4679C31.975 67.4679 31.975 67.4679 31.975 66.3716C31.975 65.6901 31.975 65.6901 33.0861 65.6901C33.738 65.6901 33.738 65.6901 33.738 66.5938Z" fill="#B552F8" stroke="#B552F8" stroke-width="0.2"/>
<path d="M54.1533 60.3566C53.2496 60.3566 53.2496 60.3566 53.2496 59.3047C53.2496 58.5788 53.2496 58.5788 54.3163 58.5788C55.0274 58.5788 55.0274 58.5788 55.0274 59.7196C55.0274 60.3566 55.0274 60.3566 54.1533 60.3566Z" fill="#B552F8" stroke="#B552F8" stroke-width="0.2"/>
<path d="M55.0274 63.0085C55.0274 63.9122 55.0274 63.9123 53.9755 63.9123C53.2496 63.9123 53.2496 63.9123 53.2496 62.8456C53.2496 62.1344 53.2496 62.1344 54.3755 62.1344C55.0274 62.1344 55.0274 62.1344 55.0274 63.0085Z" fill="#B552F8" stroke="#B552F8" stroke-width="0.2"/>
<path d="M54.1385 67.4531C53.2495 67.4531 53.2495 67.4531 53.2644 66.3864C53.2644 65.6901 53.2644 65.6901 54.3459 65.6901C55.0274 65.6901 55.0274 65.6901 55.0274 66.7864C55.0274 67.4531 55.0274 67.4531 54.1385 67.4531Z" fill="#B552F8" stroke="#B552F8" stroke-width="0.2"/>
<path d="M30.1824 23.0965C30.1824 24.0002 30.1824 24.0002 29.1305 24.0002C28.4194 24.0002 28.4194 24.0002 28.4194 22.9335C28.4194 22.2224 28.4194 22.2224 29.5009 22.2372C30.1824 22.2075 30.1824 22.2075 30.1824 23.0965Z" fill="#B552F8" stroke="#B552F8" stroke-width="0.2"/>
<path d="M24.8637 26.6669C24.8637 27.541 24.8637 27.541 23.8415 27.541C23.1007 27.541 23.1007 27.541 23.1007 26.4447C23.1007 25.7632 23.1007 25.7632 24.2118 25.7632C24.8637 25.7632 24.8637 25.7632 24.8637 26.6669Z" fill="#B552F8" stroke="#B552F8" stroke-width="0.2"/>
<path d="M27.5304 26.6373C27.5304 27.541 27.5304 27.541 26.4786 27.541C25.7526 27.541 25.7526 27.541 25.7526 26.4743C25.7526 25.7632 25.7526 25.7632 26.8934 25.7632C27.5304 25.7632 27.5304 25.7632 27.5304 26.6373Z" fill="#B552F8" stroke="#B552F8" stroke-width="0.2"/>
<path d="M29.3231 27.541C28.4194 27.541 28.4194 27.541 28.4194 26.4891C28.4194 25.7632 28.4194 25.7632 29.4861 25.7632C30.1972 25.7632 30.1972 25.7632 30.1972 26.8891C30.1824 27.541 30.1824 27.541 29.3231 27.541Z" fill="#B552F8" stroke="#B552F8" stroke-width="0.2"/>
<path d="M24.8637 19.526C24.8637 20.4445 24.8637 20.4445 23.9303 20.4445C23.0859 20.4445 23.0859 20.4445 23.0859 19.6149C23.0859 18.6667 23.0859 18.6667 24.0489 18.6667C24.8637 18.6667 24.8637 18.6667 24.8637 19.526Z" fill="#B552F8" stroke="#B552F8" stroke-width="0.2"/>
<path d="M27.5304 19.5704C27.5304 20.4445 27.5304 20.4445 26.4934 20.4445C25.7526 20.4445 25.7526 20.4445 25.7526 19.3482C25.7526 18.6667 25.7526 18.6667 26.8638 18.6667C27.5304 18.6667 27.5304 18.6667 27.5304 19.5704Z" fill="#B552F8" stroke="#B552F8" stroke-width="0.2"/>
<path d="M30.1824 19.526C30.1824 20.4445 30.1824 20.4445 29.249 20.4445C28.4045 20.4445 28.4045 20.4445 28.4045 19.6149C28.4045 18.6667 28.4045 18.6667 29.3675 18.6667C30.1824 18.6667 30.1824 18.6667 30.1824 19.526Z" fill="#B552F8" stroke="#B552F8" stroke-width="0.2"/>
<path d="M24.8637 23.1113C24.8637 23.9854 24.8637 23.9854 23.8414 23.9854C23.0859 23.9854 23.0859 23.9854 23.0859 22.889C23.0859 22.2075 23.0859 22.2076 24.197 22.2076C24.8637 22.2076 24.8637 22.2075 24.8637 23.1113Z" fill="#B552F8" stroke="#B552F8" stroke-width="0.2"/>
<path d="M27.5304 23.0965C27.5304 23.9854 27.5304 23.9854 26.4638 23.9854C25.7526 23.9854 25.7526 23.9854 25.7526 22.9039C25.7526 22.2075 25.7526 22.2076 26.8489 22.2076C27.5304 22.2076 27.5304 22.2076 27.5304 23.0965Z" fill="#B552F8" stroke="#B552F8" stroke-width="0.2"/>
<path d="M57.7089 22.2076C58.5682 22.2076 58.5682 22.2076 58.5682 23.2446C58.5682 23.9854 58.5682 23.9854 57.4571 23.9854C56.7904 23.9854 56.7904 23.9854 56.7904 22.8742C56.8052 22.2076 56.8052 22.2076 57.7089 22.2076Z" fill="#B552F8" stroke="#B552F8" stroke-width="0.2"/>
<path d="M60.3608 22.2076C61.2497 22.2076 61.2497 22.2075 61.2497 23.2742C61.2497 23.9854 61.2497 23.9854 60.1682 23.9706C59.4719 23.9706 59.4719 23.9706 59.4719 22.8742C59.4571 22.2076 59.4571 22.2076 60.3608 22.2076Z" fill="#B552F8" stroke="#B552F8" stroke-width="0.2"/>
<path d="M63.9017 23.0965C63.9017 23.9854 63.9017 23.9854 62.8498 23.9854C62.1387 23.9854 62.1387 23.9854 62.1387 22.9187C62.1387 22.2224 62.1387 22.2224 63.2202 22.2224C63.9017 22.2076 63.9017 22.2076 63.9017 23.0965Z" fill="#B552F8" stroke="#B552F8" stroke-width="0.2"/>
<path d="M58.5682 26.6669C58.5682 27.541 58.5682 27.541 57.546 27.541C56.7904 27.541 56.7904 27.541 56.7904 26.4447C56.7904 25.7632 56.7904 25.7632 57.9015 25.7632C58.5682 25.7632 58.5682 25.7632 58.5682 26.6669Z" fill="#B552F8" stroke="#B552F8" stroke-width="0.2"/>
<path d="M63.9017 26.6669C63.9017 27.541 63.9017 27.541 62.8794 27.541C62.1387 27.541 62.1387 27.541 62.1387 26.4447C62.1387 25.7632 62.1387 25.7632 63.2498 25.7632C63.9017 25.7632 63.9017 25.7632 63.9017 26.6669Z" fill="#B552F8" stroke="#B552F8" stroke-width="0.2"/>
<path d="M60.3164 25.7632C61.2349 25.7632 61.2349 25.7632 61.2349 26.6965C61.2349 27.541 61.2349 27.541 60.4053 27.541C59.4571 27.541 59.4571 27.541 59.4571 26.578C59.4571 25.7632 59.4571 25.7632 60.3164 25.7632Z" fill="#B552F8" stroke="#B552F8" stroke-width="0.2"/>
<path d="M57.6496 20.4446C56.8052 20.4446 56.8052 20.4446 56.8052 19.6149C56.8052 18.6816 56.8052 18.6816 57.7682 18.6816C57.8719 18.6816 57.9904 18.6964 58.0941 18.6816C58.4793 18.6223 58.6423 18.7704 58.583 19.1556C58.5682 19.2742 58.583 19.4075 58.583 19.5408C58.5682 20.4446 58.5682 20.4446 57.6496 20.4446Z" fill="#B552F8" stroke="#B552F8" stroke-width="0.2"/>
<path d="M61.2349 19.5408C61.2349 20.4297 61.2349 20.4297 60.1682 20.4297C59.4571 20.4297 59.4571 20.4297 59.4571 19.3482C59.4571 18.6519 59.4571 18.6519 60.5534 18.6519C61.2349 18.6667 61.2349 18.6667 61.2349 19.5408Z" fill="#B552F8" stroke="#B552F8" stroke-width="0.2"/>
<path d="M62.1238 19.5112C62.1238 18.6667 62.1238 18.6667 63.0128 18.6667C63.9017 18.6667 63.9017 18.6667 63.9017 19.5556C63.9017 20.4297 63.9017 20.4297 63.0424 20.4297C62.1238 20.4445 62.1238 20.4445 62.1238 19.5112Z" fill="#B552F8" stroke="#B552F8" stroke-width="0.2"/>
</svg>
