<svg width="69" height="69" viewBox="0 0 69 69" fill="none" xmlns="http://www.w3.org/2000/svg">
<circle cx="34.5" cy="34.5" r="34.5" fill="#005997"/>
<path d="M34.8837 54.7C29.8633 54.7 24.8544 54.7 19.8339 54.7C17.5445 54.7 16.0918 53.2841 16.0918 51.0412C16.0918 44.1314 16.0918 37.2215 16.0918 30.3117C16.0918 28.5559 17.1842 27.1966 18.881 26.8568C19.1947 26.7888 19.5201 26.7888 19.8339 26.7888C29.8633 26.7888 39.9042 26.7888 49.9336 26.7888C52.2346 26.7888 53.6757 28.1934 53.6757 30.4363C53.6757 37.3008 53.6757 44.1767 53.6757 51.0412C53.6757 53.2841 52.223 54.7 49.9336 54.7C44.9131 54.7 39.8926 54.7 34.8837 54.7ZM34.8721 28.1368C29.8865 28.1368 24.9009 28.1368 19.9153 28.1368C19.6247 28.1368 19.3342 28.1255 19.0553 28.1934C18.1256 28.4313 17.5445 29.2243 17.4748 30.1871C17.4399 30.7648 17.6142 31.0706 18.1604 31.3538C23.6341 34.1518 29.0962 36.9723 34.5583 39.8042C34.814 39.9288 34.9883 39.9288 35.2324 39.8042C38.5678 38.0711 41.9031 36.3493 45.2501 34.6275C47.4931 33.4721 49.7244 32.3167 51.9673 31.1613C52.1068 31.082 52.3044 31.0593 52.2927 30.8214C52.2695 30.4816 52.316 30.1418 52.2463 29.8133C52.0487 28.7711 51.2119 28.1481 50.0149 28.1481C44.9596 28.1368 39.9158 28.1368 34.8721 28.1368ZM50.8865 53.1934C50.7471 53.0575 50.6425 52.9669 50.5263 52.8763C45.8196 48.9343 41.1129 45.0036 36.4062 41.0616C36.1854 40.8803 36.0226 40.8803 35.8018 41.0276C35.2208 41.4354 34.6281 41.5487 34.0121 41.0729C33.71 40.835 33.4892 40.9257 33.1986 41.1635C28.6081 45.0376 23.9828 48.889 19.3691 52.7517C19.2064 52.8876 19.0553 53.0235 18.8693 53.1821C19.4388 53.3973 50.2474 53.4087 50.8865 53.1934ZM32.2805 40.1667C27.3182 37.6067 22.4255 35.0806 17.498 32.5432C17.4864 32.6905 17.4864 32.7585 17.4864 32.8264C17.4864 38.9773 17.4864 45.1169 17.4864 51.2678C17.4864 51.4717 17.5212 51.6869 17.5793 51.8908C17.6956 52.3212 17.742 52.3325 18.0907 52.0494C21.8909 48.8776 25.6795 45.7059 29.4798 42.5228C30.3978 41.7412 31.3159 40.971 32.2805 40.1667ZM37.4986 40.1554C37.6148 40.2573 37.6845 40.3253 37.7543 40.3933C41.0431 43.1459 44.332 45.8985 47.6209 48.6511C48.9806 49.7952 50.3519 50.9279 51.7117 52.0833C51.979 52.3099 52.0835 52.2533 52.1649 51.9587C52.2462 51.6982 52.2811 51.4377 52.2811 51.1658C52.2811 45.0716 52.2811 38.9886 52.2811 32.8944C52.2811 32.7924 52.3392 32.6678 52.1998 32.5772C47.3071 35.0919 42.4261 37.618 37.4986 40.1554Z" fill="white" stroke="white" stroke-width="0.3"/>
<path d="M34.8722 14C41.0316 14 47.191 14 53.3504 14C54.9425 14 55.7444 14.7929 55.7444 16.3561C55.7444 18.4631 55.7444 20.57 55.7444 22.6769C55.7444 24.1042 54.8844 24.9311 53.4201 24.9311C41.0548 24.9311 28.6896 24.9311 16.3243 24.9311C14.8484 24.9311 14 24.1042 14 22.6769C14 20.5247 14 18.3838 14 16.2315C14 14.8269 14.86 14 16.3127 14C22.4953 14 28.6896 14 34.8722 14ZM34.8722 15.3593C28.6896 15.3593 22.4953 15.3593 16.3127 15.3593C15.627 15.3593 15.3946 15.5859 15.3946 16.2429C15.3946 18.3725 15.3946 20.5134 15.3946 22.643C15.3946 23.3566 15.627 23.5718 16.3592 23.5718C28.7012 23.5718 41.0548 23.5718 53.3968 23.5718C54.129 23.5718 54.3614 23.3453 54.3614 22.6316C54.3614 20.57 54.3614 18.5084 54.3614 16.4468C54.3614 15.5179 54.1987 15.3593 53.2574 15.3593C47.1329 15.3593 41.0083 15.3593 34.8722 15.3593Z" fill="white" stroke="white" stroke-width="0.3"/>
<path d="M23.6342 19.4598C23.9596 19.6751 24.2502 19.8563 24.5407 20.0489C25.0869 20.4 25.238 20.7852 24.9707 21.159C24.7034 21.5328 24.3199 21.5441 23.7504 21.1703C23.5413 21.0344 23.3437 20.9098 23.0996 20.7512C22.9951 21.091 23.0532 21.4082 23.0415 21.7254C23.0183 22.2124 22.751 22.5296 22.3326 22.5183C21.9143 22.5183 21.6586 22.2011 21.647 21.7027C21.647 21.4195 21.647 21.1363 21.6353 20.8531C21.6353 20.8418 21.6353 20.8305 21.6237 20.7852C21.2983 20.8758 21.0543 21.1023 20.787 21.2609C20.3454 21.5215 19.9502 21.4762 19.7178 21.125C19.497 20.7852 19.6132 20.4 20.0316 20.1168C20.3686 19.9016 20.7056 19.6864 21.0775 19.4485C20.694 19.2106 20.3454 18.9841 19.9967 18.7575C19.6016 18.497 19.5086 18.1005 19.7294 17.772C19.9618 17.4322 20.3454 17.3756 20.7637 17.6248C21.0426 17.7947 21.3216 17.9759 21.6586 18.1912C21.6586 17.806 21.6586 17.4888 21.6586 17.1717C21.6702 16.7072 21.9375 16.4014 22.3442 16.3901C22.7626 16.3787 23.0415 16.6959 23.0532 17.183C23.0648 17.4775 23.0648 17.772 23.0648 18.0779C23.0648 18.0892 23.0764 18.1005 23.0996 18.1685C23.3902 17.9873 23.6807 17.806 23.9713 17.6361C24.3896 17.3869 24.7731 17.4549 24.9939 17.7947C25.2031 18.1119 25.1102 18.497 24.7383 18.7462C24.378 18.9841 24.0177 19.2106 23.6342 19.4598Z" fill="white"/>
<path d="M29.4333 19.4599C29.0382 19.1994 28.6779 18.9841 28.3409 18.7463C27.9574 18.4857 27.8528 18.0893 28.0852 17.7608C28.3177 17.4436 28.6896 17.3756 29.0847 17.6022C29.3752 17.7721 29.6658 17.9646 30.0144 18.1799C30.0144 17.7721 30.0028 17.4436 30.0144 17.1038C30.026 16.6733 30.3166 16.3788 30.7001 16.3788C31.0836 16.3788 31.3857 16.6733 31.3974 17.1038C31.409 17.4436 31.3974 17.7721 31.3974 18.1799C31.746 17.9646 32.0249 17.7834 32.3155 17.6022C32.7106 17.3643 33.0825 17.4209 33.3149 17.7494C33.5473 18.0666 33.4544 18.4744 33.0709 18.7349C32.8965 18.8595 32.7106 18.9728 32.5247 19.0861C32.3619 19.1994 32.1876 19.3013 31.9668 19.4486C32.3387 19.6864 32.6757 19.8903 33.0011 20.1169C33.4311 20.4001 33.5473 20.7739 33.3265 21.125C33.0941 21.4875 32.6874 21.5442 32.2341 21.2497C31.9784 21.0911 31.7344 20.9325 31.3974 20.7059C31.3974 21.1024 31.3974 21.4082 31.3974 21.7254C31.3857 22.2125 31.1068 22.5183 30.6885 22.507C30.2817 22.4957 30.026 22.1898 30.0144 21.7254C30.0144 21.4196 30.0144 21.1137 30.0144 20.7512C29.6658 20.8758 29.4217 21.0911 29.1428 21.261C28.7012 21.5215 28.3061 21.4649 28.0852 21.1137C27.8761 20.7852 27.9806 20.4001 28.3758 20.1395C28.7012 19.9356 29.0382 19.7204 29.4333 19.4599Z" fill="white"/>
<path d="M38.3587 18.1912C38.3587 17.772 38.3471 17.4322 38.3587 17.1037C38.3703 16.6846 38.6725 16.3787 39.056 16.3901C39.4395 16.3901 39.7301 16.6959 39.7417 17.115C39.7533 17.4435 39.7417 17.7834 39.7417 18.1912C40.0903 17.9759 40.3809 17.7834 40.6714 17.6135C41.0665 17.3869 41.4384 17.4435 41.6708 17.772C41.8917 18.0892 41.8103 18.4857 41.45 18.7349C41.1014 18.9841 40.7295 19.2106 40.3344 19.4599C40.6714 19.6864 40.9852 19.8903 41.2873 20.0829C41.7754 20.4 41.9149 20.7739 41.6825 21.1363C41.4384 21.5215 41.0317 21.5441 40.5087 21.2043C40.2879 21.057 40.0555 20.9098 39.7533 20.7172C39.7533 21.1137 39.7533 21.4309 39.7533 21.748C39.7417 22.2125 39.4744 22.5183 39.0676 22.5183C38.6493 22.5296 38.3703 22.2125 38.3587 21.7254C38.3587 21.4195 38.3587 21.1137 38.3587 20.7172C38.0217 20.9324 37.7544 21.1024 37.4755 21.2723C37.0571 21.5215 36.6736 21.4762 36.4412 21.1477C36.1971 20.8192 36.3133 20.4114 36.7201 20.1395C37.0571 19.913 37.3941 19.7091 37.7776 19.4599C37.4058 19.2106 37.0571 18.9954 36.7201 18.7689C36.325 18.5083 36.2087 18.1232 36.4179 17.7947C36.6387 17.4322 37.0455 17.3756 37.4755 17.6361C37.7428 17.806 38.0101 17.9759 38.3587 18.1912Z" fill="white"/>
<path d="M48.6785 19.4599C49.0504 19.6977 49.3875 19.913 49.7129 20.1282C50.1428 20.4114 50.2591 20.7965 50.0266 21.1363C49.7942 21.4875 49.3991 21.5328 48.9575 21.2723C48.7018 21.1137 48.4461 20.9551 48.1904 20.7965C48.1788 20.7965 48.1672 20.7965 48.0975 20.8192C48.0975 21.091 48.0975 21.3855 48.0975 21.6687C48.0975 22.2011 47.8418 22.5183 47.4118 22.5296C46.9818 22.541 46.7145 22.2238 46.7029 21.6914C46.7029 21.3969 46.7029 21.1024 46.7029 20.7285C46.3659 20.9438 46.0986 21.125 45.8197 21.2949C45.4013 21.5441 45.0178 21.4988 44.7853 21.159C44.5529 20.8192 44.6575 20.4227 45.0759 20.1508C45.4129 19.9243 45.7499 19.7204 46.1334 19.4712C45.7615 19.222 45.4129 19.0068 45.0643 18.7689C44.6691 18.5083 44.5529 18.1232 44.7737 17.7947C45.0062 17.4435 45.4013 17.3869 45.8313 17.6474C46.0986 17.806 46.3659 17.9873 46.7029 18.2025C46.7029 17.84 46.7029 17.5342 46.7029 17.2396C46.7029 16.7186 46.9818 16.3901 47.4118 16.4014C47.8302 16.4127 48.0858 16.7186 48.0975 17.217C48.0975 17.5228 48.0975 17.8287 48.0975 18.2025C48.4461 17.9759 48.7366 17.7947 49.0272 17.6248C49.4223 17.3982 49.7942 17.4662 50.0266 17.7834C50.2474 18.1005 50.1545 18.497 49.8058 18.7462C49.4456 18.9728 49.0853 19.1993 48.6785 19.4599Z" fill="white"/>
</svg>
