<svg width="69" height="69" viewBox="0 0 69 69" fill="none" xmlns="http://www.w3.org/2000/svg">
<circle cx="34.5" cy="34.5" r="34.5" fill="#005997"/>
<path d="M19.1924 54.9163C18.9628 54.8507 18.7223 54.7851 18.4927 54.7086C16.984 54.1838 16.0109 52.7954 16 51.1226C16 48.4222 16 45.7218 16 43.0213C16 40.1678 16 37.3253 16 34.4718C16 32.154 17.3447 30.6672 19.6516 30.4813C19.903 30.4594 19.9358 30.361 19.9249 30.1533C19.914 29.0709 19.914 27.9995 19.9249 26.9172C19.9468 20.5433 24.1231 15.1096 30.2784 13.4588C37.7455 11.458 45.5626 16.2029 47.2572 23.7685C47.5196 24.9383 47.618 26.1081 47.5961 27.2998C47.5852 28.2291 47.607 29.1584 47.5852 30.0768C47.5742 30.3938 47.6836 30.4704 47.9787 30.4594C48.6347 30.4485 49.2907 30.4048 49.9357 30.5578C51.5975 30.9514 52.7674 32.3727 52.8111 34.0892C52.833 35.084 52.822 36.0789 52.822 37.0738C52.822 41.6657 52.822 46.2684 52.822 50.8602C52.822 53.0249 51.8053 54.326 49.7061 54.8507C49.6843 54.8617 49.6624 54.8835 49.6405 54.8945C39.4839 54.9163 29.3381 54.9163 19.1924 54.9163ZM34.3782 52.4564C39.2106 52.4564 44.032 52.4564 48.8643 52.4564C49.892 52.4564 50.3512 51.9863 50.3621 50.9477C50.3621 45.4484 50.3621 39.9601 50.3621 34.4609C50.3621 33.4004 49.9029 32.9303 48.8534 32.9303C39.2215 32.9303 29.6005 32.9303 19.9686 32.9303C18.941 32.9303 18.4818 33.4004 18.4818 34.439C18.4818 39.9383 18.4818 45.4266 18.4818 50.9258C18.4818 51.9863 18.941 52.4564 19.9905 52.4564C24.7791 52.4564 29.5787 52.4564 34.3782 52.4564ZM45.1362 28.1198C45.1471 26.9609 45.169 25.802 44.9285 24.6541C43.6712 18.6082 38.1173 14.716 31.973 15.6235C27.2062 16.3232 23.2376 20.2809 22.5269 25.0586C22.2755 26.7641 22.4285 28.4915 22.3739 30.208C22.3629 30.4813 22.5269 30.4704 22.7128 30.4704C23.5546 30.4704 24.4074 30.4485 25.2492 30.4813C25.5991 30.4922 25.6756 30.372 25.6756 30.044C25.6866 28.7102 25.61 27.3763 25.7194 26.0316C26.1129 21.5163 30.497 18.1162 34.9577 18.8487C39.0138 19.5156 41.8344 22.8392 41.8454 26.9609C41.8454 28.0105 41.8563 29.06 41.8344 30.1096C41.8344 30.4048 41.9219 30.4813 42.2062 30.4704C43.0699 30.4485 43.9226 30.4594 44.7863 30.4704C45.0487 30.4704 45.1471 30.4048 45.1362 30.1314C45.1253 29.4645 45.1362 28.7976 45.1362 28.1198ZM33.755 30.4594C33.9081 30.4594 34.0502 30.4594 34.2033 30.4594C35.8104 30.4594 37.4176 30.4594 39.0247 30.4594C39.1887 30.4594 39.3964 30.525 39.3855 30.2298C39.3527 28.8414 39.4729 27.4529 39.3089 26.0644C38.9919 23.3312 36.4773 21.1774 33.7004 21.2211C30.8359 21.2649 28.4088 23.4624 28.1683 26.2393C28.059 27.5185 28.1574 28.7976 28.1137 30.0768C28.1027 30.3938 28.2011 30.4704 28.5072 30.4594C30.2674 30.4594 32.0058 30.4594 33.755 30.4594Z" fill="#F7F7F7"/>
<path d="M33.1865 45.0381C33.11 43.6059 33.7222 42.6766 35.0342 42.1628C35.8432 41.8567 36.2368 41.0148 36.0291 40.1949C35.8323 39.4296 35.1107 38.9157 34.2798 38.9594C33.4817 39.0032 32.8476 39.6263 32.7492 40.4572C32.7273 40.654 32.7164 40.8727 32.6508 41.0586C32.454 41.6161 31.8636 41.9332 31.2732 41.8348C30.7047 41.7364 30.2784 41.2116 30.2674 40.6103C30.2346 38.4784 31.9839 36.6307 34.1377 36.5105C36.3461 36.3793 38.2812 37.9755 38.5108 40.1183C38.7186 42.0535 37.7455 43.7153 35.9525 44.4696C35.712 44.568 35.6136 44.6883 35.6355 44.9507C35.6573 45.1912 35.6464 45.4426 35.6355 45.6832C35.5917 46.3391 35.0342 46.853 34.3891 46.8421C33.755 46.8311 33.2193 46.3173 33.1865 45.6722C33.1756 45.4427 33.1865 45.224 33.1865 45.0381Z" fill="#F7F7F7"/>
<path d="M35.6354 49.6408C35.6354 50.3733 35.0888 50.9309 34.3891 50.92C33.7003 50.909 33.1755 50.3624 33.1755 49.6408C33.1755 48.9083 33.7112 48.3617 34.4219 48.3726C35.1216 48.3835 35.6354 48.9302 35.6354 49.6408Z" fill="#F7F7F7"/>
</svg>
