<svg width="69" height="69" viewBox="0 0 69 69" fill="none" xmlns="http://www.w3.org/2000/svg">
<circle cx="34.5" cy="34.5" r="34.5" fill="#005997"/>
<path d="M33.3001 12.4138C34.2304 12.4138 35.1607 12.4138 36.0911 12.4138C36.847 12.5185 37.6145 12.5766 38.3704 12.7162C44.15 13.7395 48.8714 16.5654 52.4183 21.2286C56.2675 26.2989 57.6979 32.0437 56.6745 38.3234C55.7326 44.1146 52.8718 48.8244 48.2202 52.3945C43.336 56.1391 37.7889 57.5811 31.6953 56.7903C27.2646 56.2089 23.3689 54.4064 20.0197 51.4409C16.124 47.9871 13.6935 43.696 12.7632 38.5792C12.612 37.7535 12.5306 36.9162 12.4143 36.0906C12.4143 35.1603 12.4143 34.2299 12.4143 33.2996C12.4841 32.753 12.5422 32.2065 12.612 31.6715C13.3097 26.8339 15.3448 22.6358 18.7754 19.1354C22.1129 15.7165 26.1482 13.5767 30.858 12.7511C31.672 12.6115 32.4861 12.5301 33.3001 12.4138ZM51.0577 45.1961C55.5814 38.6257 55.7791 27.6363 47.8713 20.3332C40.0566 13.1232 27.8693 13.4837 20.4732 21.3798C13.4726 28.8573 14.1703 39.2653 18.3335 45.1613C18.3568 45.1031 18.3916 45.045 18.4033 44.9984C19.5778 40.091 22.3688 36.4046 26.7646 33.9392C27.0786 33.7648 26.9623 33.6601 26.8227 33.4624C25.2179 31.2064 24.6364 28.7061 25.1132 25.9617C26.0087 20.8333 31.0906 17.2282 36.1957 18.0888C43.429 19.3099 46.8363 27.4851 42.5685 33.4275C42.3475 33.7415 42.4289 33.8229 42.708 33.9741C46.8596 36.3115 49.5459 39.8003 50.8367 44.3705C50.9181 44.6379 50.9763 44.9054 51.0577 45.1961ZM34.6723 54.2087C35.184 54.197 35.6841 54.1738 36.1957 54.1389C40.7078 53.7784 44.6035 52.0224 47.9643 48.9988C48.4644 48.5569 48.6505 48.115 48.5691 47.4289C47.9411 42.1726 45.278 38.3815 40.5566 35.9976C40.2659 35.8464 40.0566 35.8813 39.7659 36.0441C36.3702 37.9977 32.9629 37.9977 29.5788 36.0208C29.323 35.8696 29.1369 35.858 28.8694 35.9859C23.9154 38.4629 21.2408 42.4749 20.7872 47.9871C20.764 48.243 20.857 48.4174 21.0431 48.5918C24.8458 52.2666 29.4044 54.104 34.6723 54.2087ZM27.7298 27.706C27.7181 31.5436 30.8347 34.6718 34.6491 34.6951C38.4983 34.7067 41.6498 31.5901 41.6614 27.7525C41.673 23.9266 38.5564 20.7867 34.7421 20.7751C30.8813 20.7519 27.7414 23.8684 27.7298 27.706Z" fill="white"/>
</svg>
