<svg width="88" height="88" viewBox="0 0 88 88" fill="none" xmlns="http://www.w3.org/2000/svg">
<rect opacity="0.14" width="87.3636" height="88" rx="8" fill="#1F9C33"/>
<path d="M16 30.2266C16.0315 30.0891 16.0573 29.9458 16.1003 29.8112C16.3753 28.9375 16.9453 28.3503 17.8161 28.0695C21.3625 26.9266 24.9089 25.7865 28.4552 24.6435C33.1245 23.1424 37.7938 21.6414 42.4602 20.1375C42.6435 20.0802 42.8326 20.0544 43.013 20C43.2135 20 43.4141 20 43.6146 20C43.6776 20.043 43.7521 20.0344 43.8208 20.0487C44.7604 20.2607 45.4049 20.8107 45.7516 21.7102C45.8117 21.8648 45.8576 22.0253 45.9091 22.1857C45.8461 22.2143 45.8003 22.1771 45.7544 22.1628C45.2732 22.0253 44.812 21.8219 44.3135 21.7388C43.8122 21.6529 43.3195 21.6701 42.8268 21.8247C40.4664 22.5581 38.1146 23.3201 35.7628 24.0792C29.9763 25.944 24.1898 27.8174 18.4005 29.688C18.051 29.8026 17.8104 30.0089 17.7359 30.3813C17.7044 30.5359 17.7359 30.6849 17.7846 30.831C18.5208 33.051 19.257 35.2682 19.9932 37.4883C21.7206 42.6904 23.4451 47.8953 25.1724 53.0974C25.5419 54.2117 25.9115 55.326 26.281 56.4375C26.301 56.5005 26.3182 56.5635 26.3182 56.6323C26.3182 58.374 26.3182 60.1185 26.3182 61.8602C26.3182 61.8802 26.3154 61.8974 26.3125 61.9375C26.2552 61.8773 26.2495 61.8115 26.2294 61.7542C25.1982 58.649 24.1669 55.5409 23.1385 52.4357C20.801 45.4003 18.4693 38.3677 16.1375 31.3352C16.0831 31.169 16.0458 30.9971 16 30.8281C16 30.6276 16 30.4271 16 30.2266Z" fill="#1F9C33"/>
<path d="M71 33.8073C70.6018 33.5495 70.175 33.3719 69.6937 33.3404C69.4961 33.326 69.3013 33.3575 69.1094 33.3547C68.9117 33.3518 68.7799 33.1742 68.5909 33.114C66.0041 32.2919 63.4232 31.4555 60.8364 30.6276C60.7276 30.5932 60.676 30.5474 60.6674 30.4271C60.6273 29.8083 60.4526 29.2268 60.1547 28.6825C60.1432 28.6596 60.1317 28.6338 60.1117 28.5851C60.2091 28.6167 60.2864 28.6367 60.3609 28.6625C63.2914 29.6049 66.219 30.5445 69.1466 31.4898C70.1521 31.8135 70.7622 32.4982 70.9713 33.538C70.9771 33.5695 70.9885 33.601 71 33.6325C71 33.6927 71 33.75 71 33.8073Z" fill="#1F9C33"/>
<path d="M58.3672 68.125C58.3872 68.0763 58.4388 68.0648 58.4789 68.039C59.9141 67.1825 60.6617 65.9221 60.6875 64.2463C60.6904 64.0372 60.7247 63.851 60.8221 63.662C61.037 63.2495 61.1258 62.8026 61.1201 62.3357C61.1029 61.3015 61.1831 60.276 61.4781 59.2763C61.5154 59.156 61.5669 59.113 61.6901 59.1015C62.0654 59.07 62.4206 58.9612 62.7615 58.8036C62.8044 58.7836 62.8474 58.7664 62.8932 58.7463C62.919 58.7979 62.8904 58.8351 62.876 58.8724C62.0539 61.3502 61.2318 63.8252 60.4125 66.3031C60.1003 67.2513 59.4672 67.8471 58.5018 68.0992C58.476 68.1049 58.4503 68.1193 58.4245 68.1307C58.4044 68.125 58.3872 68.125 58.3672 68.125Z" fill="#1F9C33"/>
<path d="M51.4722 53.8193C52.7841 53.7964 54.0675 53.613 55.2935 53.1146C55.4969 53.0315 55.6917 52.9313 55.8922 52.8425C55.961 52.811 55.981 52.7823 55.9466 52.7021C55.6143 51.9373 55.7117 51.2412 56.2474 50.5938C60.4326 45.5378 64.612 40.4761 68.7914 35.4172C69.0435 35.1107 69.3586 34.9789 69.7425 35.0906C70.1034 35.1966 70.3068 35.4545 70.3555 35.824C70.387 36.0789 70.2982 36.2995 70.1349 36.4972C68.8229 38.0813 67.5138 39.6683 66.2018 41.2552C63.3315 44.73 60.4612 48.2018 57.5909 51.6766C57.4219 51.8828 57.4219 51.8914 57.5995 52.0776C58.7224 53.2492 59.8453 54.4209 60.9654 55.5953C61.0599 55.6956 61.1172 55.6956 61.2203 55.6068C63.913 53.255 66.6115 50.9089 69.307 48.5599C69.6479 48.262 70.0748 48.2162 70.4128 48.4453C70.8854 48.7662 70.9255 49.4279 70.4873 49.8175C70.0891 50.1727 69.6823 50.5193 69.2784 50.8716C66.9524 52.8969 64.6292 54.9222 62.3003 56.9474C61.799 57.3828 61.2232 57.5261 60.5815 57.3341C60.4755 57.3026 60.4469 57.3513 60.4097 57.4229C59.98 58.2107 59.7222 59.0558 59.5703 59.938C59.4328 60.7373 59.3899 61.5394 59.4013 62.35C59.4099 62.9716 59.0662 63.4414 58.4761 63.6248C54.5974 64.8279 50.7216 66.0339 46.843 67.237C46.7714 67.2599 46.6969 67.2828 46.6224 67.2943C46.2901 67.3487 46.0438 67.1138 46.0982 66.7815C46.1268 66.6097 46.1841 66.4407 46.2357 66.2716C47.3787 62.4245 48.5216 58.5774 49.6617 54.7331C49.8307 54.1659 50.2833 53.8308 50.8735 53.8308C51.0711 53.8193 51.2716 53.8193 51.4722 53.8193ZM50.8935 64.1117C50.8992 64.1232 50.9078 64.1375 50.9136 64.149C50.9365 64.1433 50.9594 64.1433 50.9823 64.1347C53.1794 63.4529 55.3737 62.7711 57.5708 62.0893C57.6539 62.0636 57.6826 62.0263 57.6826 61.9404C57.6797 61.3474 57.7198 60.7573 57.7943 60.1701C57.9719 58.7836 58.3471 57.4602 59.0891 56.2599C59.1349 56.1854 59.1206 56.1482 59.0662 56.0909C58.456 55.4578 57.8487 54.8248 57.2414 54.1888C57.1813 54.1258 57.1383 54.1172 57.061 54.163C56.7659 54.3407 56.4594 54.4953 56.1443 54.63C54.6232 55.286 53.0248 55.5323 51.3833 55.5438C51.2458 55.5438 51.1972 55.5867 51.1599 55.7128C50.4524 58.1104 49.7391 60.5081 49.0287 62.9029C48.9427 63.1951 48.8568 63.4873 48.768 63.7766C48.7823 63.788 48.7995 63.8024 48.8138 63.8138C48.8453 63.768 48.8711 63.7136 48.9112 63.6763C50.3091 62.2784 51.7042 60.8776 53.105 59.4854C53.274 59.3164 53.4401 59.1617 53.4086 58.8982C53.4086 58.8896 53.4115 58.8782 53.4115 58.8696C53.5404 58.2193 54.162 57.7667 54.8266 57.8469C55.4969 57.9242 55.9925 58.5086 55.9638 59.1875C55.9352 59.855 55.388 60.4021 54.7263 60.4164C54.6289 60.4193 54.5688 60.4537 54.5057 60.5167C53.6235 61.4018 52.7383 62.287 51.8531 63.1693C51.5352 63.4873 51.2115 63.7966 50.8935 64.1117Z" fill="#1F9C33"/>
<path d="M57.2529 46.632C57.2529 46.5747 57.2529 46.5203 57.2529 46.463C57.2529 41.2581 57.2529 36.056 57.2529 30.851C57.2529 30.6247 57.2156 30.4128 57.0753 30.2323C56.912 30.0203 56.6914 29.9086 56.425 29.8943C56.382 29.8914 56.3391 29.8943 56.2961 29.8943C47.7682 29.8943 39.2432 29.8943 30.7154 29.8943C30.0937 29.8943 29.7529 30.238 29.7529 30.8625C29.7529 38.5253 29.7529 46.188 29.7529 53.8508C29.7529 53.9797 29.7529 54.1086 29.7128 54.2346C29.5867 54.6242 29.1885 54.882 28.7904 54.8276C28.3693 54.7703 28.057 54.438 28.0312 54.0198C28.0284 53.9682 28.0284 53.9138 28.0284 53.8622C28.0284 46.1794 28.0284 38.4995 28.0284 30.8167C28.0284 29.3013 29.157 28.1698 30.6724 28.1698C39.2289 28.1698 47.7825 28.1698 56.3391 28.1698C57.8372 28.1698 58.9716 29.2984 58.9716 30.7966C58.9745 35.3284 58.9716 39.8573 58.9716 44.3891C58.9716 44.4607 58.9659 44.5266 58.9172 44.5896C58.3958 45.2628 57.8859 45.9417 57.3359 46.5891C57.3187 46.6091 57.3044 46.6349 57.2901 46.6578C57.2786 46.6464 57.2643 46.6406 57.2529 46.632Z" fill="#1F9C33"/>
<path d="M43.4914 40.2097C46.4935 40.2097 49.4956 40.2097 52.5005 40.2097C53.4716 40.2097 54.2393 40.9487 54.2451 41.9227C54.2537 43.65 54.2537 45.3802 54.2451 47.1076C54.2393 48.0787 53.4688 48.8149 52.4805 48.8149C47.5734 48.8149 42.6664 48.8149 37.7594 48.8149C36.6852 48.8149 35.6109 48.8149 34.5367 48.8149C33.5141 48.8149 32.7607 48.0643 32.7607 47.0446C32.7607 45.363 32.7607 43.6844 32.7607 42.0029C32.7607 40.9573 33.5026 40.2125 34.5453 40.2125C37.5245 40.2097 40.5094 40.2097 43.4914 40.2097ZM43.5115 41.9341C40.5609 41.9341 37.6104 41.9341 34.6599 41.9313C34.5253 41.9313 34.4737 41.9513 34.4737 42.106C34.4794 43.7102 34.4794 45.3143 34.4737 46.9185C34.4737 47.056 34.5081 47.0932 34.6456 47.0932C40.5466 47.0904 46.4477 47.0904 52.3487 47.0932C52.5005 47.0932 52.5263 47.0474 52.5263 46.9099C52.5206 45.3143 52.5234 43.7216 52.5234 42.1261C52.5234 41.9169 52.5521 41.9341 52.3315 41.9341C49.3925 41.9313 46.4534 41.9341 43.5115 41.9341Z" fill="#1F9C33"/>
<path d="M37.6133 65.1458C39.9422 65.1458 42.2711 65.1458 44.6029 65.1458C44.7776 65.1458 44.7747 65.1458 44.726 65.3148C44.6201 65.6958 44.4797 66.0682 44.4081 66.4578C44.3909 66.5609 44.3794 66.6669 44.3737 66.77C44.3708 66.8388 44.3508 66.8789 44.2734 66.8674C44.2534 66.8646 44.2362 66.8674 44.2161 66.8674C39.6958 66.8674 35.1755 66.8674 30.6552 66.8674C29.4177 66.8674 28.3922 66.0711 28.1057 64.8995C28.057 64.6932 28.0312 64.487 28.0312 64.275C28.0312 63.1521 28.0312 62.032 28.0312 60.9091C28.0312 60.743 28.0398 60.5797 28.037 60.4107C28.0255 59.9294 28.4352 59.5427 28.9193 59.557C29.3977 59.5713 29.7815 59.9753 29.7471 60.4508C29.7357 60.6198 29.7557 60.7831 29.7529 60.9492C29.75 62.032 29.7529 63.1177 29.7529 64.2005C29.7529 64.7935 30.1052 65.1458 30.6953 65.1458C33.0013 65.1458 35.3073 65.1458 37.6133 65.1458Z" fill="#1F9C33"/>
<path d="M43.4542 51.3901C46.7084 51.3901 49.9654 51.3901 53.2195 51.3901C53.4745 51.3901 53.6979 51.4589 53.8813 51.6394C53.9844 51.7425 53.9815 51.7539 53.8383 51.7912C52.913 52.0347 51.9706 52.1349 51.0167 52.1034C50.1029 52.0748 49.3352 52.387 48.7021 53.0373C48.6477 53.0946 48.5904 53.1146 48.513 53.1146C43.5602 53.1118 38.6044 53.1146 33.6516 53.1118C33.1417 53.1118 32.755 52.7336 32.7578 52.2438C32.7607 51.7539 33.1445 51.3901 33.6602 51.3901C36.9258 51.3901 40.1886 51.3901 43.4542 51.3901Z" fill="#1F9C33"/>
<path d="M40.6498 54.8276C42.9901 54.8276 45.3276 54.8276 47.668 54.8276C47.8399 54.8276 47.8399 54.8276 47.794 54.9852C47.6508 55.4664 47.5076 55.9448 47.3672 56.4261C47.3414 56.5177 47.3042 56.555 47.2011 56.555C42.6836 56.5521 38.169 56.5521 33.6516 56.5521C33.1417 56.5521 32.755 56.174 32.7578 55.687C32.7607 55.1972 33.1417 54.8305 33.6602 54.8305C35.9891 54.8248 38.3208 54.8276 40.6498 54.8276Z" fill="#1F9C33"/>
<path d="M48.6563 35.5146C48.6563 35.1193 48.6706 34.7211 48.6534 34.3258C48.6133 33.306 49.4268 32.6128 50.2633 32.4925C50.7016 32.4294 51.1198 32.4953 51.5094 32.7102C51.6211 32.7732 51.7042 32.7761 51.8216 32.713C52.7985 32.2003 53.9414 32.5211 54.4685 33.4521C54.606 33.6927 54.6776 33.9534 54.6776 34.2313C54.6805 35.1107 54.6805 35.9873 54.6776 36.8667C54.6748 37.3107 54.3339 37.6315 53.8669 37.6287C53.3943 37.6258 53.0649 37.3136 53.0649 36.861C53.062 36.0073 53.062 35.1508 53.0649 34.2972C53.0649 34.1711 53.0276 34.0709 52.913 34.0136C52.8013 33.9563 52.6896 33.9706 52.5865 34.0393C52.4862 34.1052 52.469 34.2055 52.469 34.3143C52.4719 35.1508 52.469 35.9844 52.469 36.8209C52.469 37.1932 52.3115 37.4396 51.9992 37.5628C51.6698 37.6917 51.2831 37.6172 51.0568 37.3766C50.9164 37.2305 50.862 37.0557 50.862 36.8552C50.862 36.0016 50.862 35.1451 50.862 34.2914C50.862 34.0422 50.6328 33.9018 50.418 34.0136C50.2948 34.0794 50.269 34.1883 50.269 34.3143C50.2719 35.1393 50.249 35.9672 50.2776 36.7922C50.3005 37.494 49.6102 37.7719 49.1003 37.5485C48.811 37.4224 48.6591 37.1932 48.6563 36.8724C48.6563 36.8638 48.6563 36.8524 48.6563 36.8438C48.6563 36.4026 48.6563 35.9586 48.6563 35.5146Z" fill="#1F9C33"/>
<path d="M39.8763 59.9896C37.7966 59.9896 35.7141 59.9896 33.6344 59.9896C33.2648 59.9896 32.9526 59.7862 32.8237 59.4568C32.6891 59.113 32.7521 58.7979 33.0042 58.5287C33.1617 58.3597 33.3594 58.2766 33.5914 58.268C33.663 58.2651 33.7346 58.268 33.8063 58.268C38.0831 58.268 42.3599 58.268 46.6367 58.268C46.8201 58.268 46.8201 58.268 46.7685 58.4399C46.6281 58.9097 46.4849 59.3795 46.3503 59.855C46.3188 59.9638 46.2729 59.9925 46.1641 59.9925C44.0672 59.9867 41.9732 59.9896 39.8763 59.9896Z" fill="#1F9C33"/>
<path d="M53.3714 26.4511C53.3198 26.4511 53.2711 26.4511 53.2195 26.4511C51.4779 26.4511 49.7362 26.4511 47.9945 26.4511C47.8971 26.4511 47.8055 26.4367 47.7138 26.4081C46.4878 26.0128 45.2617 25.6175 44.0357 25.2222C43.4799 25.0446 43.0245 25.2766 42.844 25.8323C42.7867 26.0099 42.7237 26.1847 42.6693 26.3623C42.6492 26.4281 42.6148 26.4511 42.5461 26.4511C42.0076 26.4482 41.4661 26.4482 40.9276 26.4511C40.8474 26.4511 40.8273 26.431 40.856 26.3508C41.0049 25.9183 41.131 25.4771 41.2971 25.0503C41.7927 23.7956 43.182 23.1425 44.4911 23.5607C47.4302 24.4974 50.3664 25.4485 53.3055 26.3938C53.3284 26.4024 53.3484 26.411 53.3714 26.4196C53.3714 26.431 53.3714 26.4396 53.3714 26.4511Z" fill="#1F9C33"/>
<path d="M45.9979 35.6091C45.9979 36.0245 46.0008 36.4398 45.9979 36.8552C45.995 37.2935 45.6513 37.62 45.2015 37.6114C44.7403 37.6057 44.4252 37.2992 44.4252 36.8581C44.4252 36.7005 44.4224 36.5429 44.4252 36.3854C44.4252 36.3195 44.4023 36.2909 44.3336 36.2937C43.9554 36.2966 43.5802 36.2966 43.2021 36.2937C43.1218 36.2937 43.1075 36.3338 43.1075 36.3997C43.1104 36.5344 43.0961 36.669 43.1104 36.8008C43.1677 37.3708 42.5747 37.7232 42.0677 37.5742C41.7125 37.4682 41.5234 37.219 41.5234 36.8466C41.5234 36.1018 41.5406 35.357 41.5205 34.6151C41.489 33.4721 42.357 32.6213 43.4226 32.4953C44.2648 32.395 45.0039 32.6185 45.5711 33.2802C45.8575 33.6153 46.0008 34.0049 45.9979 34.4518C45.995 34.8357 45.9979 35.2224 45.9979 35.6091ZM43.7578 34.8729C43.8638 34.8729 43.9669 34.8729 44.0729 34.8729C44.431 34.8729 44.431 34.8729 44.4252 34.5148C44.4195 34.1482 44.1474 33.8903 43.7692 33.8875C43.3854 33.8846 43.119 34.1367 43.1133 34.5062C43.1133 34.5836 43.119 34.6581 43.1104 34.7354C43.1018 34.8385 43.1333 34.8815 43.245 34.8758C43.414 34.8643 43.5859 34.8729 43.7578 34.8729Z" fill="#1F9C33"/>
<path d="M60.6875 50.9948C60.6961 50.6969 60.7964 50.4878 60.9826 50.3073C62.4578 48.8893 63.9331 47.4685 65.4083 46.0477C65.818 45.6524 66.2247 45.257 66.6372 44.8675C66.9094 44.6068 67.276 44.5438 67.6026 44.6927C67.9206 44.836 68.1182 45.1597 68.1039 45.5091C68.0924 45.7555 67.9893 45.956 67.8117 46.1279C66.4482 47.437 65.0875 48.749 63.7268 50.061C63.2055 50.5651 62.6841 51.0693 62.157 51.5706C61.882 51.8313 61.5555 51.9 61.206 51.7482C60.8651 51.5964 60.7076 51.3185 60.6875 50.9948Z" fill="#1F9C33"/>
<path d="M32.3396 35.0734C32.3396 34.807 32.3109 34.5349 32.3453 34.2742C32.4656 33.389 32.9984 32.8276 33.8291 32.5841C34.6971 32.3263 35.5221 32.4552 36.2268 33.0711C36.3758 33.2 36.4961 33.3547 36.582 33.5323C36.7052 33.7901 36.6737 34.0336 36.4932 34.2541C36.201 34.6122 35.6252 34.6466 35.2929 34.3286C35.2414 34.2799 35.1927 34.2255 35.1497 34.1711C34.9234 33.8818 34.5166 33.8015 34.1987 33.9849C34.0096 34.0937 33.9094 34.257 33.9094 34.4776C33.9094 34.8414 33.9237 35.2023 33.9065 35.5661C33.8807 36.0617 34.3849 36.2794 34.7258 36.2021C34.9148 36.1591 35.058 36.0588 35.1812 35.9041C35.5078 35.4888 36.1036 35.4515 36.4617 35.8182C36.6679 36.0331 36.7224 36.3195 36.5849 36.5831C36.2927 37.1359 35.8114 37.4482 35.2156 37.5685C34.4565 37.7232 33.7289 37.6344 33.0958 37.1474C32.5945 36.7635 32.3195 36.2536 32.331 35.6062C32.3338 35.4286 32.331 35.2539 32.331 35.0763C32.331 35.0734 32.3367 35.0734 32.3396 35.0734Z" fill="#1F9C33"/>
<path d="M37.1149 35.0305C37.1149 34.449 37.1149 33.8675 37.1149 33.2831C37.1149 32.9021 37.281 32.6471 37.6104 32.5268C37.9485 32.4008 38.3438 32.4925 38.5701 32.7474C38.6933 32.8878 38.742 33.0482 38.742 33.2344C38.7391 34.1596 38.7448 35.0849 38.7391 36.013C38.7391 36.1391 38.7677 36.1763 38.8966 36.1734C39.3979 36.1648 39.8992 36.1677 40.4005 36.1706C40.4893 36.1706 40.5839 36.1763 40.6698 36.1964C41.0422 36.2852 41.2742 36.6003 41.2456 36.9583C41.217 37.3021 40.919 37.5857 40.5438 37.6143C40.4263 37.6229 40.306 37.6201 40.1857 37.6201C39.4495 37.6201 38.7162 37.6201 37.98 37.6201C37.4242 37.6201 37.1149 37.305 37.1149 36.7464C37.1149 36.7177 37.1149 36.6891 37.1149 36.6604C37.1149 36.119 37.1149 35.5747 37.1149 35.0305Z" fill="#1F9C33"/>
<path d="M26.3154 46.0448C26.0375 45.8156 25.8628 45.5607 25.7625 45.257C25.2268 43.6414 24.6883 42.0258 24.1555 40.4101C24.0208 40.0034 24.038 39.5995 24.2042 39.207C24.4076 38.7343 24.7599 38.4135 25.2469 38.2502C25.5591 38.1442 25.8742 38.0526 26.1865 37.9466C26.281 37.9151 26.3182 37.9179 26.3182 38.0354C26.3125 38.5596 26.3154 39.0838 26.3182 39.6109C26.3182 39.6911 26.2953 39.7312 26.2151 39.7513C26.1148 39.7771 26.0174 39.8229 25.9143 39.8458C25.8141 39.8687 25.7997 39.9117 25.8313 40.0062C25.9831 40.4474 26.1292 40.8914 26.2753 41.3354C26.2982 41.407 26.3154 41.4815 26.3154 41.5588C26.3154 43.0083 26.3154 44.4606 26.3154 45.9101C26.3154 45.9388 26.3154 45.9732 26.3154 46.0448Z" fill="#1F9C33"/>
<path d="M48.112 35.0591C48.112 35.6607 48.112 36.2622 48.112 36.8638C48.112 37.3135 47.7768 37.6315 47.3099 37.6315C46.8401 37.6286 46.5078 37.3135 46.5078 36.8638C46.5078 35.6549 46.5049 34.4489 46.5078 33.2401C46.5078 32.7961 46.8516 32.4781 47.3185 32.481C47.7825 32.4838 48.112 32.7989 48.112 33.2401C48.1148 33.8474 48.112 34.4518 48.112 35.0591Z" fill="#1F9C33"/>
<path d="M53.8784 66.8359C55.4912 66.3346 57.1039 65.8333 58.7138 65.3349C58.7482 65.3807 58.7167 65.4094 58.7024 65.4323C58.224 66.326 57.4821 66.8273 56.4651 66.8589C55.6258 66.8875 54.7865 66.8646 53.9472 66.8646C53.9242 66.8646 53.9042 66.8589 53.8813 66.8589C53.8813 66.8531 53.8784 66.8445 53.8784 66.8359Z" fill="#1F9C33"/>
</svg>
