<svg width="69" height="69" viewBox="0 0 69 69" fill="none" xmlns="http://www.w3.org/2000/svg">
<circle cx="34.5" cy="34.5" r="34.5" fill="#005997"/>
<path d="M30.8886 54.0039C28.0703 54.0039 25.2519 54.0039 22.4228 54.0039C19.5509 54.0039 17.4934 51.9464 17.4934 49.0745C17.4934 44.8416 17.4934 40.598 17.4934 36.3651C17.4934 33.5039 19.4973 31.4678 22.3693 31.4357C22.7229 31.4357 22.7872 31.3178 22.7765 30.9963C22.7658 29.6354 22.7658 28.2744 22.7658 26.9028C22.7765 22.7985 25.5305 19.5193 29.5705 18.7906C33.9856 17.9976 38.4328 21.3196 38.9043 25.7883C39.0865 27.5029 38.9579 29.2389 38.9686 30.9535C38.9686 31.35 39.0757 31.4357 39.4615 31.4357C41.3261 31.4464 42.7299 32.2823 43.6623 33.9004C43.898 34.3076 43.8337 34.6291 43.5122 34.8006C43.2122 34.9613 42.9121 34.8434 42.6978 34.4577C41.9584 33.1717 40.8546 32.5395 39.3758 32.5395C33.7177 32.5395 28.0703 32.5395 22.4121 32.5395C20.1617 32.5395 18.6293 34.0933 18.6293 36.3544C18.6293 40.5873 18.6293 44.8309 18.6293 49.0638C18.6293 51.3034 20.151 52.8359 22.3907 52.868C23.473 52.8787 24.5554 52.868 25.6377 52.868C30.1813 52.868 34.725 52.868 39.2686 52.868C41.0797 52.868 42.4406 51.925 42.955 50.339C43.1372 49.771 43.1372 49.1816 43.1372 48.5923C43.1372 48.4208 43.1372 48.2493 43.1479 48.0672C43.1693 47.7457 43.3729 47.5742 43.673 47.5635C43.973 47.5528 44.1659 47.7242 44.2409 48.0243C44.916 51.0248 42.5799 53.9503 39.4722 53.9718C36.611 54.0146 33.7498 54.0039 30.8886 54.0039ZM23.9017 28.478C23.9017 29.4532 23.9124 30.2676 23.891 31.0821C23.891 31.3392 23.966 31.425 24.2232 31.425C25.0804 31.4143 25.9377 31.4035 26.7843 31.425C27.1058 31.4357 27.1915 31.3392 27.1808 31.0178C27.1701 29.5604 27.1594 28.103 27.1808 26.6456C27.213 24.7274 28.8097 23.1521 30.7279 23.0878C32.7961 23.0128 34.5214 24.6524 34.5535 26.7313C34.575 28.1566 34.5642 29.5925 34.5535 31.0178C34.5535 31.3392 34.65 31.425 34.9607 31.4143C35.6787 31.3928 36.4074 31.4035 37.1254 31.4035C37.8541 31.4035 37.8648 31.4035 37.8541 30.6641C37.822 29.0674 37.972 27.46 37.7791 25.8633C37.3933 22.5627 34.5642 19.9587 31.2315 19.798C27.8559 19.6372 24.8018 21.9412 24.0624 25.1882C23.8159 26.3455 23.9338 27.4922 23.9017 28.478ZM30.8457 31.425C31.6173 31.425 32.3996 31.425 33.1711 31.425C33.3747 31.425 33.4605 31.3821 33.4498 31.1571C33.439 29.6461 33.4712 28.1351 33.4283 26.6241C33.3855 25.2953 32.1745 24.2023 30.8457 24.213C29.5062 24.2237 28.3382 25.3382 28.3167 26.667C28.2846 28.1458 28.306 29.6354 28.306 31.1142C28.306 31.3392 28.381 31.4143 28.6061 31.4143C29.3562 31.4143 30.1063 31.425 30.8457 31.425Z" fill="white" stroke="white" stroke-width="0.5"/>
<path d="M39.2364 35.3578C43.4372 35.3578 47.6272 35.3578 51.8279 35.3578C53.789 35.3578 54.9892 36.558 54.9999 38.5298C54.9999 40.3194 54.9999 42.109 54.9999 43.8986C54.9999 45.8918 53.7997 47.092 51.8065 47.092C46.0198 47.092 40.2331 47.092 34.4463 47.092C34.1463 47.092 33.9212 47.1777 33.7069 47.392C32.4103 48.6673 31.0922 49.921 29.7955 51.1855C29.5705 51.3999 29.3454 51.5928 29.024 51.4535C28.6918 51.3141 28.6703 51.0248 28.6703 50.714C28.6703 49.6424 28.6596 48.5708 28.681 47.5099C28.6918 47.167 28.5739 47.0813 28.2524 47.092C27.5558 47.1134 26.8593 47.1134 26.1735 47.0813C24.6839 47.017 23.4623 45.7953 23.4301 44.3058C23.398 42.3019 23.4087 40.2979 23.4194 38.294C23.4301 36.5901 24.6839 35.3578 26.4092 35.3578C30.685 35.3471 34.9607 35.3578 39.2364 35.3578ZM29.7955 49.6103C29.9563 49.4602 30.0527 49.3852 30.1384 49.3102C31.1458 48.3351 32.1638 47.3706 33.1497 46.374C33.439 46.0847 33.7391 45.9775 34.1463 45.9775C40.0402 45.9882 45.934 45.9882 51.8279 45.9882C53.1674 45.9882 53.8747 45.2809 53.8747 43.9307C53.8747 42.1411 53.8747 40.3515 53.8747 38.5619C53.8747 37.1903 53.1782 36.4937 51.8065 36.483C49.5347 36.483 47.2628 36.483 44.991 36.483C38.8292 36.483 32.6674 36.483 26.5057 36.483C25.2519 36.483 24.5339 37.201 24.5339 38.444C24.5339 40.3301 24.5232 42.2161 24.5339 44.0915C24.5339 45.2381 25.2733 45.9668 26.4199 45.9775C27.2772 45.9882 28.1345 45.9775 28.9811 45.9775C29.6241 45.9775 29.7848 46.1382 29.7848 46.7812C29.7955 47.6814 29.7955 48.5922 29.7955 49.6103Z" fill="white" stroke="white" stroke-width="0.5"/>
<path d="M30.4386 14.0005C38.615 14.0112 45.3769 19.2836 47.2308 26.7527C47.3058 27.0635 47.4344 27.1492 47.7344 27.1492C48.6025 27.1278 49.4705 27.1385 50.3385 27.1385C50.6278 27.1385 50.9064 27.1707 51.0457 27.4814C51.1851 27.7922 51.0136 28.0172 50.8207 28.2316C49.7705 29.4532 48.7203 30.6855 47.6702 31.9179C47.2094 32.4537 46.9415 32.4537 46.4807 31.9179C45.4305 30.707 44.391 29.4853 43.3515 28.2637C43.1479 28.0279 42.9658 27.8029 43.1051 27.4814C43.2551 27.1278 43.5766 27.1385 43.8873 27.1385C44.5196 27.1385 45.1411 27.1278 45.7734 27.1492C46.1163 27.1599 46.1699 27.0635 46.0734 26.7313C44.9161 22.6592 42.5478 19.4979 38.9151 17.3439C29.8706 11.9644 18.2757 16.7653 15.6181 26.967C15.3288 28.0922 15.1573 29.2389 15.1359 30.4069C15.1359 30.5355 15.1252 30.6748 15.1145 30.8034C15.0823 31.2106 14.8466 31.4464 14.5251 31.425C14.1929 31.4035 14 31.1571 14 30.7498C14.0107 29.0245 14.2465 27.3314 14.8144 25.7025C16.8076 19.9587 20.7405 16.2402 26.5808 14.5577C27.9846 14.1505 29.442 13.9898 30.4386 14.0005ZM44.8518 28.2958C45.5805 29.1531 46.2663 29.9461 46.9307 30.7391C47.0272 30.857 47.1022 30.8784 47.2094 30.7498C47.8845 29.9461 48.5703 29.1531 49.299 28.2958C47.8095 28.2958 46.3735 28.2958 44.8518 28.2958Z" fill="white" stroke="white" stroke-width="0.5"/>
<path d="M31.1352 42.2054C30.6959 42.4519 30.3422 42.6555 29.9886 42.8591C29.5492 43.1056 29.2385 43.0734 29.0456 42.7627C28.8527 42.4412 28.9813 42.1518 29.4207 41.8947C29.785 41.6803 30.1494 41.466 30.578 41.2195C30.1386 40.9624 29.7421 40.7373 29.3671 40.5123C28.9813 40.2872 28.8741 39.9979 29.0456 39.6871C29.217 39.3871 29.5385 39.3228 29.9136 39.5371C30.3101 39.7514 30.6959 39.9872 31.146 40.2444C31.146 39.7407 31.146 39.3121 31.146 38.8727C31.146 38.4012 31.3388 38.1547 31.7139 38.1547C32.0783 38.1547 32.2711 38.3905 32.2711 38.8727C32.2711 39.3014 32.2711 39.73 32.2711 40.2444C32.6248 40.0408 32.9248 39.8693 33.2249 39.6979C33.3642 39.6228 33.5035 39.5264 33.6428 39.4621C33.9429 39.3335 34.2108 39.3978 34.3608 39.6871C34.5215 39.9658 34.4572 40.2444 34.1893 40.4265C33.7714 40.6945 33.3428 40.9302 32.882 41.1981C33.1392 41.4553 33.4714 41.5732 33.75 41.7554C33.8786 41.8411 34.0286 41.9161 34.1572 42.0018C34.4358 42.1947 34.5215 42.5162 34.3501 42.7627C34.1572 43.052 33.8893 43.1163 33.5892 42.9556C33.2678 42.7841 32.9677 42.5912 32.6462 42.4198C32.5391 42.3555 32.4212 42.3019 32.2497 42.2161C32.2497 42.6769 32.2497 43.0949 32.2497 43.5021C32.2497 44.0486 32.0675 44.2951 31.6818 44.2951C31.3067 44.2844 31.1352 44.0379 31.1245 43.4807C31.1352 43.0842 31.1352 42.6877 31.1352 42.2054Z" fill="white"/>
<path d="M38.0793 41.2302C37.6292 40.9623 37.2327 40.7373 36.8469 40.5122C36.4826 40.2979 36.3647 39.9764 36.5362 39.6871C36.7076 39.3978 37.0398 39.3442 37.4149 39.5478C37.7257 39.7192 38.0472 39.9014 38.3472 40.0943C38.5615 40.2229 38.658 40.2122 38.6473 39.9336C38.6365 39.5478 38.6365 39.162 38.6473 38.7762C38.658 38.3904 38.8616 38.1761 39.1938 38.1654C39.526 38.1654 39.7403 38.3797 39.7617 38.7548C39.7832 39.1191 39.7832 39.4728 39.7617 39.8371C39.751 40.1479 39.8046 40.2658 40.1154 40.0622C40.4154 39.8586 40.7369 39.6871 41.0477 39.5156C41.3692 39.3442 41.6906 39.4192 41.8514 39.6871C42.0228 39.9657 41.9371 40.2765 41.6156 40.4694C41.2084 40.7266 40.7905 40.9516 40.319 41.2302C40.7476 41.4767 41.1227 41.691 41.4978 41.9161C41.905 42.1625 42.0228 42.4519 41.8514 42.7626C41.6799 43.0627 41.3477 43.1163 40.9512 42.9019C40.7155 42.7734 40.4904 42.634 40.2547 42.5054C40.1047 42.4304 39.9546 42.2268 39.8046 42.3233C39.676 42.409 39.7617 42.6448 39.751 42.8162C39.7403 43.0948 39.751 43.3735 39.751 43.6628C39.7403 44.0807 39.5367 44.3058 39.2045 44.3165C38.8509 44.3272 38.6473 44.0914 38.6365 43.6521C38.6258 43.277 38.6258 42.9019 38.6365 42.5269C38.6473 42.2804 38.5615 42.259 38.3579 42.3769C38.0257 42.5805 37.6935 42.7734 37.3506 42.9555C37.0077 43.1377 36.6755 43.0627 36.5147 42.7841C36.354 42.4947 36.4719 42.184 36.8148 41.9804C37.2113 41.7232 37.6078 41.4981 38.0793 41.2302Z" fill="white"/>
<path d="M47.8308 41.2195C48.2916 41.4874 48.6774 41.7125 49.0632 41.9375C49.4168 42.1519 49.524 42.4519 49.3632 42.7412C49.2025 43.0413 48.8703 43.1163 48.4952 42.9127C48.0987 42.6984 47.713 42.4626 47.2522 42.1947C47.2522 42.7091 47.2522 43.1485 47.2522 43.5985C47.2522 44.0486 47.0593 44.2844 46.7056 44.2951C46.3413 44.3058 46.127 44.0593 46.127 43.5878C46.127 43.2235 46.1162 42.8698 46.127 42.5055C46.1377 42.2804 46.0841 42.2054 45.8591 42.3447C45.5269 42.5483 45.1947 42.7412 44.8517 42.9234C44.4981 43.1163 44.1873 43.0413 44.0159 42.752C43.8444 42.4626 43.9409 42.1626 44.2945 41.9482C44.6267 41.7446 44.9589 41.5517 45.3018 41.3696C45.5269 41.2517 45.4947 41.166 45.2911 41.0588C44.9482 40.8766 44.616 40.6837 44.2838 40.4801C43.9409 40.2658 43.8444 39.9658 44.0159 39.6764C44.1873 39.3871 44.4981 39.3228 44.8517 39.5264C45.2589 39.7514 45.6554 39.9765 46.1162 40.2444C46.1162 39.7407 46.1162 39.3014 46.1162 38.862C46.1162 38.3905 46.3199 38.1547 46.6949 38.1547C47.0485 38.1654 47.2307 38.3905 47.2414 38.8406C47.2414 39.2799 47.2414 39.7193 47.2414 40.2444C47.6915 39.9872 48.088 39.7621 48.4845 39.5264C48.6774 39.4192 48.8703 39.3442 49.0953 39.4514C49.2775 39.5371 49.3847 39.6764 49.4168 39.88C49.449 40.1372 49.3418 40.3194 49.1275 40.448C48.731 40.7052 48.3131 40.9409 47.8308 41.2195Z" fill="white"/>
</svg>
