<svg width="69" height="69" viewBox="0 0 69 69" fill="none" xmlns="http://www.w3.org/2000/svg">
<circle cx="34.5" cy="34.5" r="34.5" fill="#005997"/>
<path d="M37.8616 15.6191C32.843 14.9405 28.3049 15.9725 24.2334 18.8141C21.1091 20.9912 18.8754 23.9035 17.5324 27.466C14.8746 34.4781 16.8821 41.8577 21.0526 46.3674C22.9894 43.639 25.5058 41.6315 28.6442 40.3309C25.9299 38.0124 24.5868 35.1001 24.8413 31.5375C25.0392 28.7949 26.2268 26.5047 28.2908 24.681C32.2916 21.1467 38.413 21.4012 42.2018 25.2041C46.1177 29.1201 46.3581 36.2028 41.3253 40.345C42.8521 40.9953 44.2658 41.8011 45.5381 42.8331C46.8105 43.851 47.9132 45.0385 48.8886 46.4098C49.6803 45.5616 50.3448 44.6568 50.9102 43.6814C53.1439 39.8926 54.0063 35.8211 53.4125 31.4527C53.2287 30.1097 53.8791 29.1908 55.0242 29.1766C55.8724 29.1625 56.551 29.7138 56.7065 30.6186C57.0458 32.5978 57.0882 34.5912 56.8479 36.5704C56.1834 41.9425 53.8932 46.4947 49.9489 50.1845C46.7539 53.1674 42.9652 55.0476 38.6392 55.7404C31.7403 56.8289 25.6047 55.0759 20.374 50.4955C16.2883 46.9188 13.8567 42.3383 13.1923 36.9238C12.3158 29.7421 14.4364 23.5218 19.5399 18.4183C23.5831 14.2902 28.6301 12.2403 34.398 12.0141C34.7797 12 35.0483 12.0989 35.2887 12.41C36.1086 13.4702 36.971 14.5023 37.8616 15.6191ZM34.9635 52.6585C38.9785 52.6161 42.64 51.4427 45.9198 49.0818C46.3015 48.8132 46.3157 48.6294 46.0612 48.2618C40.7032 40.5712 29.1673 40.5853 23.8234 48.3042C23.5972 48.6294 23.5831 48.799 23.9365 49.0535C27.2305 51.4144 30.9062 52.6161 34.9635 52.6585ZM41.7352 32.3151C41.7352 28.5829 38.6957 25.5575 34.9635 25.5575C31.2313 25.5575 28.1918 28.5829 28.1918 32.3151C28.1918 36.0614 31.2313 39.1151 34.9918 39.1009C38.7099 39.1009 41.7352 36.0473 41.7352 32.3151Z" fill="#F7F7F7"/>
<path d="M51.8857 15.1809C51.8857 15.6898 51.8999 16.1987 51.8857 16.7077C51.8716 17.0187 51.9847 17.0894 52.2816 17.0894C53.2288 17.0752 54.1901 17.0752 55.1373 17.0894C56.2117 17.0894 56.9751 17.7962 56.9751 18.7858C56.9751 19.7613 56.2117 20.4682 55.1373 20.4823C54.2042 20.4823 53.2712 20.4964 52.3381 20.4823C51.9988 20.4682 51.8857 20.553 51.8857 20.9206C51.914 21.8253 51.8999 22.716 51.8999 23.6207C51.8999 24.7941 51.2354 25.5717 50.2175 25.5717C49.1855 25.5858 48.507 24.7941 48.507 23.5925C48.507 22.716 48.4928 21.8253 48.5211 20.9488C48.5352 20.5671 48.408 20.4823 48.0404 20.4823C47.1074 20.5106 46.1743 20.4964 45.2413 20.4823C44.181 20.4682 43.4176 19.7472 43.4317 18.7576C43.4458 17.7962 44.1951 17.1035 45.2413 17.0894C46.1743 17.0894 47.1074 17.0752 48.0404 17.0894C48.408 17.1035 48.5211 17.0046 48.5211 16.6229C48.4928 15.6898 48.507 14.7567 48.507 13.8237C48.507 12.7493 49.2279 12 50.2034 12C51.1789 12 51.8716 12.7634 51.8857 13.852C51.8999 14.3044 51.8857 14.7426 51.8857 15.1809Z" fill="#F7F7F7"/>
</svg>
