<svg width="88" height="88" viewBox="0 0 88 88" fill="none" xmlns="http://www.w3.org/2000/svg">
<rect opacity="0.14" width="87.3636" height="88" rx="8" fill="#0074C8"/>
<path d="M23.7178 29.0481C22.6275 28.7325 21.5516 28.4312 20.4901 28.13C20.404 28.1013 20.3179 28.0869 20.2319 28.0582C19.8876 27.9435 19.7154 27.714 19.7298 27.3553C19.7441 27.011 19.9593 26.7959 20.2749 26.7241C21.982 26.3942 23.6891 26.0642 25.3962 25.7487C25.7261 25.6913 25.9987 25.9065 26.0561 26.222C26.0991 26.509 25.9126 26.7815 25.597 26.8532C24.6933 27.0397 23.7752 27.2119 22.8714 27.384C22.7423 27.4127 22.5988 27.4414 22.355 27.4844C23.0722 27.6853 23.6891 27.8718 24.2916 28.0439C24.6933 28.1587 25.1093 28.2734 25.5109 28.3882C25.8696 28.4886 26.0848 28.7038 26.0704 29.0768C26.0704 29.4354 25.8409 29.6362 25.5109 29.7367C24.5498 30.0236 23.5887 30.2961 22.6419 30.583C22.5988 30.5974 22.5558 30.6117 22.4984 30.6978C22.9431 30.7839 23.4022 30.8699 23.8469 30.956C24.4064 31.0564 24.9515 31.1568 25.5109 31.2573C25.8839 31.329 26.0848 31.6015 26.0274 31.9028C25.97 32.2327 25.6687 32.4192 25.2814 32.3475C23.6461 32.0606 22.0107 31.7593 20.3753 31.4581C19.9593 31.3864 19.7298 31.1568 19.7011 30.8126C19.6724 30.4539 19.8732 30.1957 20.2892 30.0666C21.3221 29.751 22.355 29.4497 23.3735 29.1485C23.5169 29.1772 23.6174 29.1628 23.7178 29.0481Z" fill="#0074C8"/>
<path d="M26.0991 35.5321C26.0991 35.8047 25.9987 35.9625 25.8265 36.0773C25.7692 36.1059 25.7118 36.1346 25.6544 36.1633C25.3818 36.2781 24.9802 36.2924 24.8511 36.522C24.7219 36.7658 24.808 37.1245 24.7937 37.4401C24.7937 37.7987 24.808 38.1717 24.7793 38.5303C24.765 38.8029 24.8654 38.9463 25.1236 39.0037C25.3101 39.0611 25.4966 39.1328 25.6831 39.2189C26.0274 39.3767 26.1565 39.6779 26.0274 39.9792C25.9126 40.2517 25.597 40.3809 25.2671 40.2661C24.2199 39.8788 23.1583 39.4628 22.1111 39.0754C21.4942 38.8459 20.8774 38.602 20.2605 38.3725C19.945 38.2577 19.7154 38.0713 19.7011 37.6983C19.7011 37.311 19.9163 37.1245 20.2605 36.9954C21.9103 36.3785 23.56 35.7473 25.2097 35.1305C25.7118 34.944 26.1134 35.1735 26.0991 35.5321ZM21.7812 37.6266C21.7812 37.6552 21.7812 37.6839 21.7812 37.7126C22.355 37.9278 22.9144 38.143 23.4882 38.3582C23.5887 38.4012 23.6891 38.4299 23.6891 38.2577C23.6891 37.813 23.6891 37.3827 23.6891 36.8949C23.0149 37.1675 22.398 37.397 21.7812 37.6266Z" fill="#0074C8"/>
<path d="M19.7298 47.2236C19.7298 46.3916 19.8732 45.8608 20.1745 45.3587C20.404 44.9858 20.7052 44.871 21.0065 45.0431C21.3078 45.2153 21.3508 45.5309 21.1356 45.9325C20.3897 47.2954 21.15 48.8303 22.6706 49.0455C24.0764 49.2463 25.3244 47.7974 24.8941 46.4633C24.808 46.1908 24.6502 45.9756 24.4494 45.7747C24.1912 45.5165 24.1768 45.1722 24.4063 44.9427C24.6359 44.7132 24.9658 44.7275 25.2527 44.9714C26.4577 46.033 26.386 48.1417 25.0949 49.318C24.0764 50.2361 22.9001 50.4513 21.652 49.8919C20.3753 49.3611 19.7728 48.3426 19.7298 47.2236Z" fill="#0074C8"/>
<path d="M22.9144 44.0389C22.0824 44.0389 21.236 44.0389 20.404 44.0389C20.0884 44.0389 19.8302 43.9385 19.7585 43.5942C19.6724 43.2069 19.9306 42.92 20.3753 42.92C21.7238 42.92 23.0722 42.92 24.435 42.92C25.0375 42.92 24.9802 43.0061 24.9802 42.3892C24.9802 42.1454 24.9658 41.9158 24.9802 41.672C24.9945 41.3133 25.224 41.0838 25.5253 41.0695C25.8265 41.0695 26.0848 41.299 26.0848 41.6433C26.0991 42.2458 26.0991 42.8483 26.0848 43.4508C26.0704 43.8525 25.8552 44.0389 25.4249 44.0389C24.5928 44.0389 23.7608 44.0389 22.9144 44.0389Z" fill="#0074C8"/>
<path d="M22.9431 33.1652C23.7608 33.1652 24.5929 33.1652 25.4105 33.1652C25.8409 33.1652 26.0991 33.3803 26.0848 33.739C26.0848 34.0833 25.8266 34.2841 25.4249 34.2841C23.7465 34.2841 22.0824 34.2841 20.404 34.2841C19.9737 34.2841 19.7154 34.0689 19.7298 33.7103C19.7298 33.366 19.9737 33.1652 20.3897 33.1652C21.2504 33.1652 22.0968 33.1652 22.9431 33.1652Z" fill="#0074C8"/>
<path d="M71 28.46C70.7848 29.5502 70.5696 30.6261 70.0389 31.6159C69.9098 31.8455 69.795 32.1037 69.6515 32.3189C69.3933 32.6918 68.9199 32.7923 68.5613 32.5627C68.174 32.3045 68.1022 31.9459 68.2744 31.5299C68.3318 31.4008 68.4178 31.286 68.4752 31.1569C69.9241 28.2591 69.752 25.4474 67.7436 22.894C65.7496 20.3692 63.0527 19.4654 59.9398 20.2831C56.8125 21.1152 54.8902 23.2526 54.4025 26.4516C53.9434 29.4641 55.0336 31.9746 57.5441 33.7247C60.0545 35.4748 62.7371 35.5466 65.4627 34.1694C65.5201 34.1407 65.5918 34.0977 65.6492 34.069C66.3091 33.6817 66.7825 33.739 67.0407 34.2124C67.2989 34.6858 67.1124 35.0732 66.4812 35.4605C65.018 36.3212 63.4257 36.7372 61.7186 36.7229C61.3886 36.7229 61.2739 36.8089 61.2165 37.1532C60.8865 39.0899 59.2368 40.4957 57.2572 40.4957C56.6977 40.4957 56.4682 40.6678 56.2817 41.1843C55.6218 42.9057 54.4311 44.2111 52.7958 45.2297C53.3552 45.5453 53.843 45.8609 53.9721 46.5207C54.0008 46.6929 54.2733 46.6785 54.4455 46.7359C56.9129 47.5679 59.3803 48.4 61.862 49.232C62.3785 49.4042 62.8662 49.605 63.2822 49.9636C63.4687 50.1214 63.6552 50.1501 63.8704 50.1501C64.7311 50.1501 65.5918 50.1358 66.4525 50.1501C67.3993 50.1645 67.9014 50.6665 67.9158 51.6277C67.9301 52.6318 67.9158 53.636 67.9158 54.6402C67.9158 55.2714 67.6145 55.63 67.0981 55.6157C66.596 55.6013 66.3091 55.2427 66.2947 54.6115C66.2947 53.8082 66.2804 53.0048 66.2947 52.2015C66.3091 51.8715 66.2087 51.7711 65.8787 51.7711C61.819 51.7855 57.7593 51.7855 53.6852 51.7711C53.3122 51.7711 53.2405 51.9002 53.2405 52.2445C53.2548 57.4662 53.2548 62.7023 53.2405 67.924C53.2405 68.2683 53.3409 68.383 53.6852 68.3687C56.6403 68.3543 59.5955 68.3687 62.5506 68.3543C63.024 68.3543 63.2392 68.0387 63.067 67.594C62.8662 67.0489 62.8375 66.5038 63.0814 65.973C63.1531 65.8009 63.1674 65.6718 63.067 65.5283C63.0527 65.4996 63.0383 65.4566 63.024 65.4279C62.7945 64.8397 63.0814 64.2803 63.0957 63.7064C63.1101 63.1757 62.7945 62.6162 63.0097 62.0424C63.3109 61.2534 63.8847 60.7943 64.7311 60.7083C64.7885 60.7083 64.8315 60.7083 64.8889 60.6939C65.3336 60.6652 65.9074 60.8804 66.18 60.6079C66.4812 60.3066 66.2517 59.7184 66.2804 59.2594C66.2947 58.9868 66.266 58.7143 66.3091 58.4561C66.3952 58.0113 66.6821 57.7531 67.1411 57.7818C67.6002 57.8105 67.8727 58.0831 67.8871 58.5421C67.9014 59.1877 67.9014 59.8332 67.8871 60.4787C67.8871 60.7657 67.9588 60.9521 68.2314 61.1243C69.049 61.6264 69.5081 62.3867 69.5081 63.3478C69.5224 64.9545 69.5511 66.5755 69.5081 68.1822C69.465 69.6311 68.3318 70.7357 66.8829 70.8074C66.2087 70.8361 65.5201 70.8217 64.8459 70.8074C64.3438 70.793 63.8704 70.6352 63.5404 70.2623C63.2822 69.9897 63.024 69.9467 62.6797 69.9467C47.7175 69.9467 32.7553 69.9467 17.7932 69.9467C16.4304 69.9467 16 69.5163 16 68.1535C16 53.2774 16 38.4156 16 23.5395C16 22.1911 16.4591 21.7464 17.8075 21.7464C19.7728 21.7464 21.7381 21.7464 23.7178 21.7464C24.1195 21.7464 24.4781 21.8324 24.6646 22.2197C24.9515 22.7792 24.5355 23.353 23.8469 23.3674C22.025 23.3817 20.2032 23.3674 18.367 23.3674C17.621 23.3674 17.621 23.3674 17.621 24.142C17.621 38.6595 17.621 53.177 17.6067 67.6801C17.6067 68.1965 17.6927 68.3687 18.2666 68.3687C21.5086 68.34 24.7507 68.34 27.9784 68.3543C28.38 68.3543 28.5665 68.2683 28.5235 67.8379C28.4804 67.3358 28.4948 66.8337 28.5235 66.3316C28.5522 65.9156 28.3944 65.8152 28.007 65.8296C26.1278 65.8439 24.2486 65.8439 22.3693 65.8439C20.9922 65.8439 20.5475 65.3992 20.5475 64.0077C20.5475 63.4769 20.5475 62.9318 20.5475 62.401C20.5475 61.1673 21.0209 60.7083 22.2259 60.6939C24.1338 60.6939 26.0561 60.6796 27.964 60.6939C28.3657 60.6939 28.5378 60.6079 28.5235 60.1631C28.5091 59.7615 28.4231 59.6037 27.9784 59.618C26.0848 59.6467 24.1912 59.6324 22.2833 59.6324C21.0065 59.6324 20.5331 59.159 20.5331 57.8822C20.5331 57.251 20.5188 56.6342 20.5331 56.003C20.5475 54.9845 21.0496 54.4824 22.0537 54.4824C24.019 54.4681 25.9844 54.4681 27.964 54.4824C28.3944 54.4824 28.5378 54.3533 28.5091 53.9373C28.4804 53.3778 28.4661 52.8183 28.5952 52.2732C28.9538 50.8387 29.8289 49.8202 31.2347 49.3468C33.7882 48.4717 36.3417 47.611 38.8951 46.7503C39.1677 46.6498 39.3972 46.5638 39.469 46.2195C39.5694 45.7174 40.0858 45.5596 40.4444 45.3014C40.4014 45.1149 40.2436 45.0862 40.1288 45.0145C38.6226 44.0103 37.5323 42.6618 36.9155 40.9691C36.8007 40.6392 36.6429 40.5531 36.2986 40.5531C34.3477 40.5531 32.8558 39.5489 32.2533 37.8705C31.5934 36.063 32.0955 34.0977 33.53 32.8927C33.7595 32.7062 33.8026 32.5054 33.8026 32.2471C33.8026 30.5113 33.8026 28.7756 33.8026 27.0398C33.7882 25.9352 33.946 24.8593 34.362 23.8408C34.5342 23.4104 34.3764 23.3817 34.0034 23.3817C31.9807 23.3961 29.958 23.3817 27.9353 23.3817C27.2467 23.3817 26.8881 23.0948 26.9025 22.5784C26.9025 22.0619 27.2754 21.775 27.9497 21.775C30.2879 21.775 32.6406 21.775 34.9789 21.775C35.2945 21.775 35.4953 21.6746 35.6961 21.4308C37.4893 19.2072 39.8276 18.0453 42.6823 18.0166C45.3505 17.9879 48.0188 18.0022 50.687 18.0166C52.681 18.0309 54.4885 18.6621 56.0522 19.8958C56.3534 20.1397 56.5543 20.1397 56.8842 19.9388C62.4502 16.3095 69.9241 19.7237 70.8852 26.3082C70.8996 26.4086 70.8852 26.5233 70.9857 26.5951C71 27.1689 71 27.8144 71 28.46ZM38.0057 68.297C40.4444 68.297 42.8688 68.2826 45.3075 68.3113C45.7379 68.3113 45.8813 68.2252 45.8813 67.7662C45.867 62.9605 45.867 58.1405 45.867 53.3348C45.867 53.263 45.867 53.1913 45.867 53.1196C45.8957 52.6749 45.5514 52.4454 45.2932 52.2015C45.0636 51.9863 44.8485 52.3163 44.662 52.431C43.543 53.0622 42.4384 53.7364 41.3339 54.382C40.344 54.9558 39.4403 54.4394 39.4403 53.2917C39.4403 51.7855 39.4259 50.2936 39.4546 48.7873C39.469 48.3283 39.3542 48.2565 38.9238 48.4143C36.6286 49.2033 34.319 49.978 32.0237 50.7526C30.7183 51.1973 30.1588 51.972 30.1588 53.3635C30.1588 58.1691 30.1588 62.9892 30.1445 67.7949C30.1445 68.2109 30.2449 68.34 30.6753 68.34C33.114 68.2826 35.5527 68.297 38.0057 68.297ZM43.4426 30.5113C42.2663 30.5113 41.3052 30.497 40.344 30.5113C39.0243 30.5257 38.0631 31.4581 38.0488 32.7779C38.0344 34.5998 38.0057 36.4216 38.0488 38.2578C38.1205 41.4281 40.4875 44.1394 43.6291 44.5841C45.4223 44.8423 47.2441 44.7132 49.0373 44.6702C52.1359 44.5841 54.8615 42.002 55.2058 38.9034C55.3636 37.4258 55.2345 35.9339 55.2919 34.4563C55.3062 34.112 55.2058 33.8538 54.9763 33.5956C54.0151 32.534 53.3839 31.286 52.9679 29.9088C52.8245 29.4354 52.9823 28.7612 52.5806 28.546C52.1933 28.3309 51.6051 28.5173 51.103 28.4887C50.5866 28.4456 50.1993 28.6178 49.8119 28.9907C48.9799 29.7941 47.9614 30.2531 46.8138 30.4396C45.6375 30.5974 44.4324 30.454 43.4426 30.5113ZM47.029 19.5515C45.3649 19.5515 44.0451 19.5372 42.711 19.5515C38.6226 19.5946 35.4523 22.7792 35.4379 26.8676C35.4236 28.3739 35.4236 29.8658 35.4523 31.3721C35.4523 31.5586 35.2658 31.9315 35.6674 31.8885C35.9974 31.8598 36.4421 32.1324 36.6429 31.5442C37.2454 29.8228 38.6082 28.8903 40.4444 28.876C42.1659 28.876 43.873 28.8616 45.5944 28.876C46.9142 28.8903 48.0475 28.4743 48.9799 27.5275C49.4533 27.0541 50.0415 26.8246 50.7157 26.8246C51.2752 26.8246 51.8203 26.8103 52.3798 26.8246C52.6236 26.8246 52.7097 26.7672 52.7527 26.4947C52.9679 24.5724 53.7139 22.8796 55.005 21.4451C55.1914 21.2299 55.1914 21.1295 54.9619 20.9574C53.9864 20.2544 52.9249 19.781 51.7342 19.6089C50.0558 19.4368 48.3631 19.6232 47.029 19.5515ZM47.4737 60.5074C47.4737 62.9605 47.4737 65.3992 47.4593 67.8522C47.4593 68.1965 47.5597 68.3113 47.904 68.297C48.9943 68.2683 50.0845 68.2683 51.1748 68.297C51.5334 68.3113 51.6338 68.1965 51.6338 67.8522C51.6195 63.4052 51.6195 58.9438 51.6338 54.4967C51.6338 54.2672 51.5908 54.0951 51.3612 53.966C50.3571 53.3922 49.3529 52.7896 48.3631 52.2015C48.2483 52.1298 48.1335 52.0293 47.9901 52.2015C47.7319 52.5314 47.445 52.804 47.4593 53.3061C47.488 55.7161 47.4737 58.1118 47.4737 60.5074ZM67.9158 65.6861C67.9158 64.9115 67.9301 64.1511 67.9014 63.3765C67.8727 62.6879 67.4567 62.2863 66.7825 62.2576C66.1943 62.2432 65.6062 62.2432 65.018 62.2576C64.8172 62.2576 64.6163 62.2719 64.5446 62.5158C64.4872 62.7166 64.602 62.8457 64.7454 62.9748C65.2332 63.4482 65.2475 63.8499 64.7598 64.2946C64.4729 64.5672 64.4442 64.768 64.7454 65.0406C65.2475 65.4996 65.2475 65.9156 64.7598 66.3603C64.4729 66.6329 64.4442 66.8337 64.7454 67.1063C65.2475 67.5653 65.2475 67.967 64.7598 68.4261C64.602 68.5695 64.4729 68.6986 64.5446 68.9281C64.6307 69.1433 64.8315 69.172 65.0323 69.172C65.5631 69.172 66.1082 69.1864 66.639 69.172C67.4567 69.1577 67.8871 68.7273 67.9014 67.9096C67.9301 67.1493 67.9158 66.4177 67.9158 65.6861ZM46.6703 46.2912C46.3117 46.2912 45.9531 46.2912 45.5944 46.2912C44.3033 46.2912 44.3033 46.2912 44.3033 47.5966C44.3033 47.9553 44.2173 48.3282 44.5042 48.6582C45.1497 49.4185 45.7809 50.1931 46.3978 50.9821C46.5842 51.226 46.699 51.2547 46.8998 50.9965C47.531 50.1931 48.1766 49.4185 48.8221 48.6295C48.9369 48.486 48.9943 48.3283 48.9943 48.1418C48.9943 47.6397 48.9799 47.1376 48.9943 46.6498C49.0086 46.3773 48.9082 46.2769 48.6213 46.2912C47.9901 46.3056 47.3302 46.2912 46.6703 46.2912ZM36.4421 36.2208C36.4278 35.4892 36.3991 34.7576 36.4421 34.026C36.4708 33.5239 36.2556 33.4665 35.8539 33.5239C34.7493 33.6673 33.8886 34.4707 33.7021 35.5896C33.4726 36.9524 33.989 38.1144 35.0649 38.6308C35.3949 38.7886 35.7392 38.8603 36.0978 38.8747C36.3704 38.889 36.4708 38.8173 36.4564 38.516C36.4278 37.7557 36.4421 36.9811 36.4421 36.2208ZM25.3532 57.954C26.2569 57.954 27.175 57.9396 28.0788 57.954C28.3944 57.954 28.5378 57.8679 28.5235 57.5236C28.5091 57.1506 28.5091 56.7777 28.5235 56.4047C28.5378 56.0891 28.4087 56.0173 28.1075 56.0173C26.2713 56.0317 24.4351 56.0317 22.5845 56.0173C22.2689 56.0173 22.1255 56.1034 22.1398 56.4334C22.1685 56.792 22.1685 57.1506 22.1398 57.5093C22.1111 57.8679 22.2689 57.9683 22.5989 57.9683C23.5313 57.9396 24.4494 57.954 25.3532 57.954ZM25.3245 64.1655C25.9126 64.1655 26.5008 64.1655 27.0889 64.1655C28.5522 64.1655 28.5378 64.1655 28.5235 62.7023C28.5235 62.3149 28.38 62.2289 28.0214 62.2289C26.5438 62.2432 25.0519 62.2289 23.5743 62.2289C22.1111 62.2289 22.1255 62.2289 22.1398 63.6921C22.1398 64.0794 22.2689 64.1798 22.6419 64.1655C23.5456 64.1511 24.4351 64.1655 25.3245 64.1655ZM41.0326 52.6175C41.1474 52.5745 41.1904 52.5745 41.2191 52.5601C41.7929 52.2302 42.3667 51.9002 42.9262 51.556C43.3279 51.3121 44.0021 51.1686 44.0595 50.767C44.1025 50.4514 43.6004 50.021 43.2705 49.6911C42.8114 49.2177 42.6536 48.6869 42.6967 48.0413C42.7397 47.4962 42.6967 46.9368 42.711 46.3773C42.711 45.99 42.5389 45.8895 42.2089 46.0904C41.8933 46.2769 41.5777 46.4777 41.2478 46.6642C41.1043 46.7503 41.0469 46.8363 41.0469 47.0085C41.0326 48.859 41.0326 50.7239 41.0326 52.6175ZM52.308 48.5721C52.308 48.0844 52.308 47.611 52.308 47.1232C52.308 46.9368 52.308 46.779 52.1072 46.6642C51.7629 46.4777 51.433 46.2625 51.0887 46.0617C50.7731 45.8752 50.6153 46.0187 50.6296 46.3629C50.6296 46.5064 50.6153 46.6498 50.6296 46.7933C50.8018 48.2278 50.5579 49.5189 49.3816 50.5087C49.3672 50.5231 49.3529 50.5374 49.3529 50.5518C49.1377 50.7526 49.2238 50.8674 49.439 50.9821C50.0271 51.3121 50.6153 51.6564 51.1891 52.015C51.519 52.2158 51.6625 52.2158 51.6338 51.7855C51.6051 51.3695 51.5764 50.9104 51.9207 50.6235C52.308 50.2936 52.3224 49.9062 52.308 49.4759C52.2937 49.189 52.308 48.8734 52.308 48.5721ZM56.8985 37.1532C56.8842 37.1532 56.8842 37.1532 56.8699 37.1532C56.8699 37.6123 56.8842 38.0857 56.8699 38.5447C56.8555 38.7599 56.8985 38.8603 57.1424 38.8747C58.29 38.9607 59.5524 37.8848 59.6385 36.7372C59.6528 36.5077 59.5811 36.4216 59.3803 36.3642C58.62 36.1491 57.8884 35.8478 57.2141 35.4318C56.9272 35.2597 56.8842 35.3888 56.8842 35.647C56.9129 36.1491 56.8985 36.6511 56.8985 37.1532ZM59.1221 50.1071C59.1221 50.064 59.1364 50.021 59.1364 49.9923C57.415 49.4042 55.6935 48.8303 53.9147 48.2278C53.9147 48.7443 53.9434 49.189 53.9147 49.6337C53.886 50.0067 54.0008 50.1214 54.3881 50.1214C55.421 50.0927 56.4538 50.1071 57.501 50.1071C58.0318 50.1071 58.5769 50.1071 59.1221 50.1071Z" fill="#0074C8"/>
<path d="M62.5506 24.9023C61.9911 24.9023 61.446 24.888 60.8865 24.9023C60.3271 24.9167 59.9541 25.304 59.9397 25.8061C59.9254 26.3225 60.3414 26.7242 60.9009 26.7385C61.5464 26.7529 62.192 26.7242 62.8375 26.7529C64.2003 26.7959 65.2619 27.8431 65.3192 29.1629C65.3766 30.5544 64.4298 31.659 63.0527 31.8024C62.7371 31.8311 62.5936 31.9172 62.6367 32.2471C62.651 32.448 62.651 32.6345 62.6367 32.8353C62.608 33.2943 62.3354 33.5669 61.8907 33.5956C61.4316 33.6243 61.1591 33.3661 61.0587 32.9214C61.0443 32.864 61.0443 32.821 61.0443 32.7636C60.9583 31.8168 60.9583 31.8168 59.9684 31.8168C59.7676 31.8168 59.5811 31.8311 59.3803 31.8024C58.9499 31.7594 58.6917 31.5299 58.6487 31.0852C58.6056 30.6261 58.8495 30.3249 59.2942 30.2388C59.5237 30.1958 59.7532 30.1958 59.9828 30.1958C60.8578 30.1958 61.7329 30.1958 62.608 30.1958C63.3396 30.1958 63.7269 29.8515 63.7269 29.2633C63.7126 28.6752 63.3109 28.3596 62.5793 28.3452C62.0055 28.3452 61.4317 28.3596 60.8578 28.3452C59.495 28.3165 58.4048 27.255 58.3474 25.9065C58.29 24.5867 59.2798 23.4248 60.614 23.2957C60.9726 23.267 61.0587 23.1235 61.0443 22.8079C61.03 22.564 61.03 22.3058 61.1017 22.062C61.2021 21.6746 61.5034 21.4595 61.905 21.4881C62.3211 21.5168 62.5936 21.7607 62.651 22.2054C62.651 22.2341 62.651 22.2771 62.651 22.3058C62.7084 23.267 62.7084 23.267 63.6695 23.267C63.8704 23.267 64.0568 23.267 64.2577 23.267C64.7311 23.2957 65.061 23.5969 65.0897 24.0129C65.1184 24.4433 64.7741 24.8306 64.3007 24.8593C63.6982 24.9023 63.1244 24.888 62.5506 24.9023C62.5506 24.888 62.5506 24.888 62.5506 24.9023Z" fill="#0074C8"/>
<path d="M34.7063 43.5225C34.7063 45.1579 33.3865 46.4777 31.7512 46.492C30.1158 46.492 28.7817 45.1722 28.7817 43.5369C28.7817 41.9158 30.1158 40.5817 31.7512 40.5674C33.3865 40.553 34.7063 41.8728 34.7063 43.5225ZM33.7021 43.5082C33.7021 42.4179 32.8127 41.5429 31.7225 41.5572C30.6466 41.5715 29.7859 42.4466 29.7715 43.5082C29.7715 44.5841 30.6609 45.4735 31.7368 45.4735C32.8414 45.4735 33.7021 44.6128 33.7021 43.5082Z" fill="#0074C8"/>
<path d="M38.0918 55.0563C40.8461 55.0563 43.084 57.2655 43.084 60.0198C43.0983 62.7884 40.8604 65.055 38.0918 65.055C35.3375 65.055 33.0709 62.7884 33.0853 60.0341C33.0996 57.2798 35.3375 55.0563 38.0918 55.0563ZM38.0774 56.663C36.2126 56.663 34.7063 58.1836 34.6919 60.0341C34.6919 61.8847 36.2126 63.4196 38.0631 63.434C39.9423 63.4483 41.4629 61.9133 41.4629 60.0198C41.4629 58.1549 39.9567 56.663 38.0774 56.663Z" fill="#0074C8"/>
<path d="M46.6703 43.0349C45.0349 42.9631 43.7582 42.2746 42.9118 40.8544C42.2233 39.6924 42.9118 38.4587 44.2603 38.4444C45.867 38.43 47.4736 38.43 49.0803 38.4444C50.4001 38.4587 51.0887 39.6924 50.4288 40.8257C49.5968 42.2602 48.32 42.9631 46.6703 43.0349ZM44.3033 40.0797C44.9776 41.0552 45.8239 41.4999 46.9142 41.3995C47.8036 41.3278 48.4922 40.9117 48.9943 40.0797C47.4163 40.0797 45.91 40.0797 44.3033 40.0797Z" fill="#0074C8"/>
<path d="M47.4737 33.8108C47.445 34.2698 47.1007 34.528 46.8425 34.8436C46.3978 35.3888 46.3834 35.3888 46.8998 35.8478C46.9859 35.9339 47.0863 36.0056 47.1724 36.106C47.531 36.479 47.5741 36.9094 47.2728 37.2537C46.9716 37.5979 46.4838 37.6266 46.0822 37.2823C45.6375 36.895 45.2071 36.5077 44.7767 36.0917C44.4181 35.7474 44.3607 35.3457 44.6763 34.9441C45.121 34.3846 45.5801 33.8395 46.0535 33.3087C46.2973 33.0361 46.5986 32.9214 46.9716 33.0792C47.2872 33.1939 47.445 33.4665 47.4737 33.8108Z" fill="#0074C8"/>
<path d="M43.2992 34.0977C43.2992 34.3989 43.3135 34.7002 43.2992 35.0014C43.2705 35.4605 42.9979 35.7187 42.5389 35.7474C42.1085 35.7761 41.7929 35.5322 41.7355 35.1162C41.6495 34.3846 41.6351 33.653 41.7355 32.9357C41.7929 32.491 42.1372 32.2758 42.5963 32.3332C43.0266 32.3906 43.2561 32.6488 43.2848 33.0935C43.3135 33.4091 43.2992 33.7534 43.2992 34.0977Z" fill="#0074C8"/>
<path d="M50.0271 34.0403C50.0271 33.696 49.9984 33.366 50.0271 33.0217C50.0702 32.5914 50.3284 32.3332 50.7587 32.3188C51.1891 32.2901 51.5047 32.5053 51.5764 32.9357C51.6768 33.6529 51.6768 34.3989 51.5764 35.1162C51.519 35.5465 51.2034 35.776 50.7731 35.7474C50.3284 35.7187 50.0558 35.4604 50.0128 35.0014C50.0128 34.6858 50.0271 34.3702 50.0271 34.0403Z" fill="#0074C8"/>
<path d="M38.0488 59.4746C37.7619 59.4603 37.4749 59.4746 37.2024 59.4173C36.772 59.3312 36.5425 59.0299 36.5712 58.6139C36.5855 58.1979 36.8294 57.8966 37.2741 57.868C37.8049 57.8393 38.35 57.8393 38.8808 57.868C39.3398 57.8966 39.6124 58.1836 39.6124 58.6283C39.6267 59.073 39.3542 59.3742 38.9095 59.4316C38.6226 59.4746 38.3357 59.4316 38.0488 59.4316C38.0488 59.4459 38.0488 59.4603 38.0488 59.4746Z" fill="#0074C8"/>
</svg>
