<svg width="88" height="88" viewBox="0 0 88 88" fill="none" xmlns="http://www.w3.org/2000/svg">
<rect opacity="0.14" width="87.3636" height="88" rx="8" fill="#27C9DF"/>
<path d="M47.303 27.326C47.3188 27.9745 47.1923 28.5914 46.9234 29.1767C46.7968 29.4456 46.8601 29.5879 47.0816 29.7619C48.8848 31.1697 50.688 32.5775 52.4753 34.0169C52.7284 34.2225 52.8866 34.175 53.1397 34.001C54.3576 33.1469 55.6863 32.8938 57.1257 33.3209C57.4579 33.4158 57.6161 33.3525 57.7901 33.0678C59.4193 30.537 61.0643 28.0062 62.7093 25.4754C62.8833 25.2065 62.8517 25.0641 62.6619 24.8268C61.3174 23.1976 61.1276 21.1097 62.1557 19.3698C63.1206 17.6931 65.0978 16.7441 66.9168 17.0604C69.0205 17.4242 70.5074 18.8636 70.9187 20.9674C71.5514 24.2732 68.3878 27.1995 65.0978 26.3137C64.6707 26.203 64.4809 26.2821 64.2594 26.6459C62.6777 29.1134 61.0801 31.581 59.4667 34.0485C59.2611 34.3648 59.2611 34.5547 59.4984 34.8552C60.8428 36.4844 60.9536 38.7305 59.7989 40.4704C58.6758 42.1629 56.5721 42.9538 54.6107 42.416C52.5861 41.8624 51.1941 40.1066 51.115 38.0029C51.0834 37.3386 51.1941 36.7059 51.463 36.1048C51.5896 35.8359 51.5263 35.6935 51.3048 35.5195C49.4858 34.0801 47.6984 32.6565 45.9111 31.233C45.6896 31.059 45.5472 31.0432 45.31 31.2171C43.491 32.4667 41.6403 32.4667 39.8055 31.2171C39.5524 31.0432 39.41 31.0906 39.2044 31.2488C37.4328 32.6565 35.6613 34.0801 33.8581 35.4563C33.5417 35.7093 33.605 35.8992 33.6999 36.1997C34.8546 39.3948 32.4819 42.6849 29.1128 42.5742C27.1356 42.5109 25.3956 41.1822 24.7946 39.2683C24.1935 37.3702 24.842 35.2823 26.4238 34.0801C28.0214 32.8622 30.1884 32.7515 31.8492 33.8745C32.2763 34.1592 32.5136 34.1434 32.8932 33.8429C34.5382 32.5142 36.1991 31.2171 37.8599 29.9201C38.2237 29.6354 38.3186 29.4298 38.1446 28.9552C37.4645 27.0413 37.8757 25.3014 39.3309 23.9252C40.802 22.5333 42.5577 22.2169 44.4242 23.0078C46.2907 23.8145 47.1923 25.3172 47.303 27.326ZM42.5261 24.5896C40.9918 24.5896 39.7106 25.8708 39.7106 27.4209C39.7106 29.0027 40.9918 30.2839 42.5577 30.2681C44.1078 30.2681 45.3733 28.9869 45.3733 27.4367C45.3891 25.8708 44.1078 24.5896 42.5261 24.5896ZM29.271 35.0134C27.7366 35.0134 26.4554 36.2946 26.4554 37.8447C26.4554 39.4265 27.7366 40.7077 29.3026 40.6919C30.8527 40.6761 32.1181 39.4107 32.1181 37.8605C32.1339 36.2946 30.8527 35.0134 29.271 35.0134ZM58.6442 37.8447C58.6442 36.2788 57.3472 34.9976 55.7654 35.0134C54.2311 35.0292 52.9499 36.3104 52.9657 37.8605C52.9815 39.4107 54.2311 40.6761 55.7812 40.6919C57.363 40.6919 58.6442 39.4107 58.6442 37.8447ZM66.205 18.9111C64.6707 18.9111 63.3895 20.1923 63.3895 21.7424C63.3895 23.3242 64.6707 24.6054 66.2525 24.5896C67.8026 24.5738 69.068 23.3084 69.068 21.7582C69.068 20.1765 67.7868 18.9111 66.205 18.9111Z" fill="#27C9DF"/>
<path d="M58.2962 71.9474C54.8163 71.9474 51.3523 71.9474 47.8724 71.9474C47.6984 71.9474 47.5086 71.9633 47.3346 71.9316C46.8285 71.8367 46.5121 71.5204 46.5121 70.9984C46.5121 70.4764 46.8127 70.1601 47.3188 70.0651C47.5086 70.0335 47.7143 70.0493 47.9041 70.0493C54.7373 70.0493 61.5546 70.0493 68.3878 70.0651C68.9415 70.0651 69.0996 69.9228 69.0522 69.385C69.0047 68.7839 69.0364 68.167 69.0522 67.5502C69.0522 67.2971 68.9731 67.1863 68.72 67.2022C68.5776 67.218 68.4511 67.2022 68.3088 67.2022C62.6461 67.2022 56.9834 67.2022 51.3207 67.2022C51.1309 67.2022 50.9252 67.218 50.7354 67.1863C50.2134 67.1231 49.8654 66.7118 49.8813 66.2215C49.9129 65.6995 50.2134 65.399 50.7196 65.3199C50.9094 65.2882 51.115 65.3041 51.3048 65.3041C57.015 65.3041 62.7093 65.3041 68.4195 65.3199C68.9415 65.3199 69.1154 65.2091 69.068 64.6713C69.0205 64.1652 69.0205 63.6432 69.068 63.137C69.1154 62.6151 68.9573 62.4411 68.4037 62.4569C63.0889 62.4885 57.7901 62.4727 52.4753 62.4727C52.2855 62.4727 52.0799 62.4885 51.8901 62.4569C51.3839 62.362 51.0676 62.0456 51.0676 61.5237C51.0676 61.0017 51.3839 60.6853 51.8901 60.5904C52.0799 60.5588 52.2855 60.5746 52.4753 60.5746C56.5246 60.5746 60.5581 60.5588 64.6074 60.5904C65.1769 60.5904 65.3034 60.4164 65.2718 59.8944C65.2243 59.3408 65.2401 58.7872 65.2718 58.2336C65.3034 57.8065 65.1611 57.7116 64.7498 57.7116C60.4949 57.7274 56.2241 57.7274 51.9692 57.7274C51.7794 57.7274 51.5737 57.7432 51.3839 57.7116C50.8778 57.6167 50.5772 57.3004 50.5772 56.7784C50.5772 56.2406 50.8936 55.94 51.3998 55.861C51.5896 55.8293 51.7952 55.8451 51.985 55.8451C57.3788 55.8451 62.7568 55.8451 68.1506 55.8451C69.068 55.8451 69.068 55.8451 69.068 54.8961C69.068 54.4057 69.0522 53.9154 69.068 53.4092C69.0838 53.0612 68.9573 52.9822 68.6251 52.9822C67.2648 52.998 65.9045 52.9822 64.5442 52.9822C59.5933 52.9822 54.6424 52.9822 49.6915 52.9822C49.5175 52.9822 49.3276 52.998 49.1537 52.9822C48.6 52.9347 48.2204 52.5393 48.2204 52.0173C48.2362 51.5269 48.6 51.1473 49.122 51.0999C49.2802 51.084 49.4384 51.0999 49.5965 51.0999C55.971 51.0999 62.3455 51.0999 68.72 51.0999C70.2385 51.0999 70.9503 51.8117 70.9503 53.3618C70.9503 54.1685 70.9661 54.9752 70.9503 55.7819C70.9345 56.9207 70.1436 57.7116 69.0047 57.7274C68.5144 57.7432 68.024 57.7432 67.5179 57.7274C67.2332 57.7116 67.1382 57.8223 67.1541 58.1071C67.1699 58.803 67.1699 59.4832 67.1541 60.1792C67.1382 60.4797 67.2332 60.6062 67.5495 60.5904C68.0398 60.5746 68.5302 60.5746 69.0364 60.5904C70.1436 60.6221 70.9661 61.3971 70.9345 62.5043C70.9028 63.7381 71.1401 64.9719 70.7605 66.2057C70.6498 66.5378 70.9819 66.9333 70.9661 67.3445C70.9503 68.2145 70.9661 69.0845 70.9503 69.9544C70.9345 71.1724 70.1594 71.9474 68.9415 71.9474C65.3983 71.9474 61.8552 71.9474 58.2962 71.9474Z" fill="#27C9DF"/>
<path d="M37.8283 49.2176C44.0446 49.2017 49.1695 54.3108 49.1853 60.5271C49.1853 66.7909 44.1237 71.9158 37.9232 71.9474C31.5487 71.9633 26.4554 66.9016 26.4554 60.5113C26.4396 54.3108 31.5645 49.2334 37.8283 49.2176ZM37.8599 70.0493C43.0322 70.0493 47.2872 65.7944 47.2872 60.622C47.2872 55.3864 43.0797 51.1157 37.8915 51.0999C32.5926 51.084 28.3535 55.3073 28.3377 60.5746C28.3377 65.8102 32.5926 70.0493 37.8599 70.0493Z" fill="#27C9DF"/>
<path d="M16 54.0419C16.2056 50.1508 18.2619 46.5918 22.5485 44.5988C26.7401 42.6374 30.7578 43.2069 34.4591 45.9749C34.7597 46.1964 34.9969 46.4337 34.9969 46.8449C35.0127 47.2404 34.8387 47.5409 34.4908 47.7149C34.0953 47.9047 33.7315 47.8256 33.3835 47.5567C32.2921 46.6867 31.0742 46.0699 29.7138 45.7219C24.8895 44.4881 19.8753 47.3036 18.3885 52.0805C16.9016 56.8733 19.4008 62.0298 24.0512 63.7697C24.2093 63.833 24.3833 63.8646 24.5573 63.9121C25.1267 64.0703 25.4431 64.5448 25.3007 65.0668C25.1584 65.6204 24.6522 65.9209 24.067 65.7311C21.5836 64.9719 19.5748 63.5325 18.0879 61.4287C16.696 59.4515 16 57.2529 16 54.0419Z" fill="#27C9DF"/>
<path d="M27.4361 47.3195C28.3061 47.3195 29.1602 47.4776 29.9828 47.7782C30.7262 48.0471 31.0109 48.5374 30.8053 49.1068C30.5996 49.6446 30.0777 49.8028 29.3501 49.5656C25.8227 48.3792 22.3112 50.4672 21.7734 54.1368C21.4571 56.3038 22.2796 58.0754 23.9879 59.4357C24.3359 59.7046 24.6048 59.9893 24.5415 60.4639C24.4466 61.2073 23.6241 61.5078 22.9597 61.0175C21.3464 59.847 20.334 58.2494 19.9544 56.3038C19.0686 51.606 22.6434 47.3353 27.4361 47.3195Z" fill="#27C9DF"/>
<path d="M37.8599 52.998C41.9883 53.0138 45.3891 56.4146 45.3891 60.543C45.3891 64.7504 41.9883 68.1512 37.7966 68.1512C33.605 68.1354 30.22 64.7188 30.2358 60.5113C30.2517 56.3671 33.6682 52.998 37.8599 52.998ZM37.8283 66.2689C40.9918 66.2531 43.5226 63.6907 43.5068 60.5113C43.491 57.4269 40.9127 54.8961 37.8125 54.8961C34.6806 54.9119 32.1339 57.4585 32.1339 60.5904C32.1339 63.7223 34.6964 66.2689 37.8283 66.2689Z" fill="#27C9DF"/>
<path d="M37.0532 62.4727C37.4486 62.4727 37.8441 62.4727 38.2395 62.4727C38.5401 62.4727 38.7299 62.3145 38.7457 62.014C38.7457 61.7135 38.5717 61.5395 38.2553 61.5395C37.8599 61.5237 37.4645 61.5395 37.069 61.5395C35.8985 61.5237 34.9337 60.7011 34.7438 59.5623C34.554 58.4076 35.2184 57.2845 36.3414 56.9207C36.6261 56.8258 36.8634 56.7784 36.9741 56.4146C37.069 56.035 37.417 55.861 37.7966 55.861C38.1763 55.861 38.5242 56.0191 38.635 56.3988C38.7457 56.81 39.0146 56.8258 39.3309 56.81C39.41 56.81 39.4891 56.81 39.5682 56.81C40.2167 56.8258 40.628 57.1896 40.6438 57.7433C40.6438 58.2969 40.2325 58.6923 39.5998 58.6923C38.9355 58.7081 38.2553 58.7081 37.591 58.6923C37.2272 58.6923 36.8792 58.7239 36.8792 59.1827C36.895 59.6097 37.2272 59.6414 37.5594 59.6414C37.8915 59.6255 38.2237 59.6255 38.5717 59.6414C39.7264 59.6572 40.6912 60.5113 40.8652 61.6344C41.0392 62.7416 40.4065 63.8488 39.3468 64.2285C38.9988 64.355 38.7299 64.4341 38.6033 64.8454C38.4926 65.1775 38.1446 65.3357 37.7808 65.3199C37.417 65.3041 37.0848 65.1459 36.9899 64.8137C36.8634 64.3866 36.5945 64.355 36.2465 64.3866C36.1516 64.4025 36.0567 64.3866 35.946 64.3866C35.3449 64.355 34.9495 63.9596 34.9653 63.4218C34.9811 62.8998 35.3607 62.5202 35.9302 62.5043C36.3098 62.4569 36.6894 62.4727 37.0532 62.4727Z" fill="#27C9DF"/>
</svg>
